<svg width="220" height="235" viewBox="0 0 220 235" fill="none" xmlns="http://www.w3.org/2000/svg">
<g clip-path="url(#clip0_175_349)">
<path d="M174.836 48.9144L174.88 48.8893L194.982 37.3323L194.982 14.168L194.939 14.1428L174.836 2.58581L174.793 2.61097L154.69 14.168L154.69 37.3323L154.734 37.3574L174.836 48.9144ZM194.808 37.2325L174.836 48.7141L154.865 37.2325L154.865 14.2686L174.836 2.78617L194.808 14.2686L194.808 37.2325Z" fill="#4CB7C4"/>
<path d="M154.778 152.704L154.821 152.678L174.924 141.121L174.924 117.957L174.881 117.932L154.778 106.375L154.734 106.4L134.633 117.957L134.633 141.121L134.676 141.147L154.778 152.704ZM174.75 141.021L154.778 152.502L134.807 141.021L134.807 118.057L154.778 106.575L174.75 118.057L174.75 141.021Z" fill="#4CB7C4"/>
<path d="M174.836 187.3L174.88 187.275L194.982 175.718L194.982 152.554L194.939 152.528L174.836 140.971L174.793 140.997L154.69 152.554L154.69 175.718L154.734 175.743L174.836 187.3ZM194.808 175.618L174.836 187.1L154.864 175.618L154.864 152.654L174.836 141.173L194.808 152.653L194.808 175.618Z" fill="#4CB7C4"/>
<path d="M134.719 187.3L134.763 187.275L154.864 175.718L154.865 152.554L154.821 152.528L134.719 140.971L134.676 140.997L114.573 152.554L114.573 175.718L114.617 175.743L134.719 187.3ZM154.691 175.618L134.72 187.1L114.748 175.618L114.748 152.654L134.72 141.173L154.691 152.654L154.691 175.618Z" fill="#4CB7C4"/>
<path d="M94.6012 187.3L94.6445 187.275L114.747 175.718L114.747 152.554L114.704 152.528L94.6012 140.971L94.5579 140.997L74.4551 152.554L74.4551 175.718L74.4984 175.743L94.6012 187.3ZM114.573 175.618L94.6012 187.1L74.6293 175.618L74.6293 152.654L94.6012 141.173L114.573 152.654L114.573 175.618Z" fill="#4CB7C4"/>
<path d="M54.4833 187.3L54.5266 187.275L74.6294 175.718L74.6294 152.554L74.5861 152.528L54.4833 140.971L54.44 140.997L34.3372 152.554L34.3372 175.718L34.3805 175.743L54.4833 187.3ZM74.4553 175.618L54.4833 187.1L34.5113 175.618L34.5114 152.654L54.4833 141.173L74.4553 152.654L74.4553 175.618Z" fill="#4CB7C4"/>
<path d="M154.778 221.896L154.821 221.871L174.924 210.314L174.924 187.15L174.881 187.125L154.778 175.568L154.734 175.593L134.633 187.15L134.633 210.314L134.676 210.339L154.778 221.896ZM174.75 210.214L154.778 221.695L134.807 210.214L134.807 187.25L154.778 175.768L174.75 187.25L174.75 210.214Z" fill="#4CB7C4"/>
<path d="M114.661 221.896L114.704 221.871L134.807 210.314L134.807 187.15L134.764 187.125L114.661 175.568L114.617 175.593L94.5147 187.15L94.5147 210.314L94.558 210.339L114.661 221.896ZM134.633 210.214L114.661 221.695L94.6889 210.214L94.6889 187.25L114.661 175.768L134.633 187.25L134.633 210.214Z" fill="#4CB7C4"/>
<path d="M74.5426 221.896L74.5859 221.871L94.6887 210.314L94.6887 187.15L94.6454 187.125L74.5426 175.568L74.4993 175.593L54.3965 187.15L54.3965 210.314L54.4398 210.339L74.5426 221.896ZM94.5146 210.214L74.5426 221.695L54.5707 210.214L54.5707 187.25L74.5426 175.768L94.5146 187.25L94.5146 210.214Z" fill="#4CB7C4"/>
<path d="M194.808 234.823L194.808 221.846L174.836 210.365L154.865 221.846L154.865 234.823L154.69 234.823L154.69 221.746L174.793 210.188L174.836 210.164L194.939 221.721L194.983 221.746L194.983 234.823L194.808 234.823Z" fill="#4CB7C4"/>
<path d="M154.69 234.823L154.69 221.846L134.719 210.365L114.747 221.846L114.747 234.823L114.573 234.823L114.573 221.746L134.676 210.188L134.719 210.164L154.821 221.721L154.865 221.746L154.865 234.823L154.69 234.823Z" fill="#4CB7C4"/>
<path d="M114.573 234.823L114.573 221.846L94.6012 210.365L74.6293 221.846L74.6293 234.823L74.456 234.823L74.456 221.746L94.5579 210.188L94.6012 210.164L114.704 221.721L114.747 221.746L114.747 234.823L114.573 234.823Z" fill="#4CB7C4"/>
<path d="M74.4562 234.823L74.4562 221.846L54.4833 210.365L34.5114 221.846L34.5114 234.823L34.3381 234.823L34.3381 221.746L54.44 210.188L54.4833 210.164L74.5861 221.721L74.6294 221.746L74.6294 234.823L74.4562 234.823Z" fill="#4CB7C4"/>
<path d="M220 48.2244L220 49.2684L207.778 56.2953L207.778 85.8324L220 92.8602L220 93.9034L206.869 86.3544L206.869 55.7733L220 48.2244Z" fill="#4CB7C4"/>
<path d="M181.181 101.645L207.777 86.3544L207.777 55.7733L181.18 40.4832L154.585 55.7733L154.585 86.3544L181.181 101.645ZM206.869 85.8324L181.181 100.601L155.493 85.8324L155.493 56.2953L181.181 41.5272L206.869 56.2953L206.869 85.8324Z" fill="#4CB7C4"/>
<path d="M128.896 101.645L155.492 86.3544L155.492 55.7733L128.896 40.4832L102.299 55.7733L102.299 86.3544L128.896 101.645ZM154.585 85.8324L128.897 100.601L103.209 85.8324L103.209 56.2953L128.897 41.5272L154.585 56.2953L154.585 85.8324Z" fill="#4CB7C4"/>
<path d="M207.323 85.5719L220 92.8603L220 93.9034L207.323 86.615L181.635 101.384L181.635 130.921L207.323 145.689L220 138.401L220 139.445L207.323 146.733L180.726 131.443L180.726 100.862L207.323 85.5719Z" fill="#4CB7C4"/>
<path d="M155.039 146.733L181.635 131.443L181.635 100.862L155.039 85.5719L128.442 100.862L128.442 131.443L155.039 146.733ZM180.726 130.921L155.039 145.689L129.351 130.921L129.351 101.384L155.039 86.6159L180.726 101.384L180.726 130.921Z" fill="#4CB7C4"/>
<path d="M102.754 146.733L129.351 131.443L129.351 100.862L102.754 85.5719L76.1576 100.862L76.1576 131.443L102.754 146.733ZM128.442 130.921L102.754 145.689L77.0662 130.921L77.0662 101.384L102.754 86.6159L128.442 101.384L128.442 130.921Z" fill="#4CB7C4"/>
<path d="M220 138.401L220 139.445L207.778 146.473L207.778 176.01L220 183.037L220 184.081L206.869 176.531L206.869 145.951L220 138.401Z" fill="#4CB7C4"/>
<path d="M181.181 191.822L207.778 176.532L207.778 145.951L181.181 130.661L154.585 145.951L154.585 176.532L181.181 191.822ZM206.869 176.01L181.181 190.778L155.493 176.01L155.493 146.473L181.181 131.705L206.869 146.473L206.869 176.01Z" fill="#4CB7C4"/>
<path d="M128.896 191.822L155.492 176.532L155.492 145.951L128.896 130.661L102.299 145.951L102.299 176.532L128.896 191.822ZM154.585 176.01L128.897 190.778L103.209 176.01L103.209 146.473L128.897 131.705L154.585 146.473L154.585 176.01Z" fill="#4CB7C4"/>
<path d="M220 229.622L210.954 234.823L209.138 234.823L220 228.578L220 229.622Z" fill="#4CB7C4"/>
<path d="M207.323 175.748L220 183.037L220 184.081L207.323 176.792L181.635 191.561L181.635 221.098L205.508 234.823L203.692 234.823L180.726 221.62L180.726 191.039L207.323 175.748Z" fill="#4CB7C4"/>
<path d="M156.854 234.823L180.726 221.098L180.726 191.561L155.039 176.792L129.351 191.561L129.351 221.098L153.223 234.823L151.408 234.823L128.442 221.62L128.442 191.039L155.039 175.748L181.635 191.039L181.635 221.62L158.669 234.823L156.854 234.823Z" fill="#4CB7C4"/>
<path d="M104.569 234.823L128.442 221.098L128.442 191.561L102.753 176.792L77.0653 191.561L77.0653 221.098L100.939 234.823L99.1233 234.823L76.1576 221.62L76.1576 191.039L102.753 175.748L129.351 191.039L129.351 221.62L106.384 234.823L104.569 234.823Z" fill="#4CB7C4"/>
<path d="M220 228.578L220 229.622L210.954 234.823L209.138 234.823L220 228.578Z" fill="#4CB7C4"/>
<path d="M203.692 234.823L181.181 221.881L158.669 234.823L156.854 234.823L181.181 220.837L205.509 234.823L203.692 234.823Z" fill="#4CB7C4"/>
<path d="M151.408 234.823L128.896 221.881L106.385 234.823L104.569 234.823L128.896 220.837L153.224 234.823L151.408 234.823Z" fill="#4CB7C4"/>
<path d="M99.1233 234.823L76.6115 221.881L54.0996 234.823L52.2842 234.823L76.6115 220.837L100.939 234.823L99.1233 234.823Z" fill="#4CB7C4"/>
<path d="M4.45537e-05 234.823L24.3273 220.837L48.6545 234.823L46.8383 234.823L24.3273 221.881L1.81542 234.823" fill="#4CB7C4"/>
<path d="M154.779 15.6549C153.982 15.6549 153.336 15.0117 153.336 14.2183C153.336 13.4248 153.982 12.7816 154.779 12.7816C155.575 12.7816 156.221 13.4248 156.221 14.2183C156.221 15.0117 155.575 15.6549 154.779 15.6549Z" fill="#4CB7C4"/>
<path d="M174.837 50.652C173.818 50.652 172.992 49.8294 172.992 48.8147C172.992 47.7999 173.818 46.9773 174.837 46.9773C175.856 46.9773 176.682 47.7999 176.682 48.8147C176.682 49.8294 175.856 50.652 174.837 50.652Z" fill="#4CB7C4"/>
<path d="M194.896 38.4383C194.255 38.4383 193.735 37.9206 193.735 37.2819C193.735 36.6433 194.255 36.1256 194.896 36.1256C195.537 36.1256 196.057 36.6433 196.057 37.2819C196.057 37.9206 195.537 38.4383 194.896 38.4383Z" fill="#4CB7C4"/>
<path d="M194.896 15.0951C194.41 15.0951 194.015 14.7025 194.015 14.2182C194.015 13.7339 194.41 13.3413 194.896 13.3413C195.382 13.3413 195.777 13.7339 195.777 14.2182C195.777 14.7025 195.382 15.0951 194.896 15.0951Z" fill="#4CB7C4"/>
<path d="M174.837 5.37284C173.347 5.37284 172.14 4.17009 172.14 2.68642C172.14 1.20275 173.347 -3.66107e-07 174.837 -2.3585e-07C176.327 -1.05594e-07 177.535 1.20275 177.535 2.68642C177.535 4.17009 176.327 5.37284 174.837 5.37284Z" fill="#4CB7C4"/>
<path d="M154.779 39.5407C153.526 39.5407 152.511 38.5298 152.511 37.2829C152.511 36.0359 153.526 35.025 154.779 35.025C156.031 35.025 157.046 36.0359 157.046 37.2829C157.046 38.5298 156.031 39.5407 154.779 39.5407Z" fill="#4CB7C4"/>
<path d="M174.837 120.112C173.67 120.112 172.724 119.17 172.724 118.008C172.724 116.845 173.67 115.903 174.837 115.903C176.004 115.903 176.95 116.845 176.95 118.008C176.95 119.17 176.004 120.112 174.837 120.112Z" fill="#4CB7C4"/>
<path d="M194.896 106.66C194.793 106.66 194.71 106.577 194.71 106.475C194.71 106.373 194.793 106.29 194.896 106.29C194.999 106.29 195.082 106.373 195.082 106.475C195.082 106.577 194.999 106.66 194.896 106.66Z" fill="#4CB7C4"/>
<path d="M194.896 85.0885C193.965 85.0885 193.211 84.3375 193.211 83.4111C193.211 82.4847 193.965 81.7336 194.896 81.7336C195.826 81.7336 196.58 82.4847 196.58 83.4111C196.58 84.3375 195.826 85.0885 194.896 85.0885Z" fill="#4CB7C4"/>
<path d="M174.837 73.324C174.035 73.324 173.386 72.6768 173.386 71.8784C173.386 71.08 174.035 70.4327 174.837 70.4327C175.639 70.4327 176.289 71.08 176.289 71.8784C176.289 72.6768 175.639 73.324 174.837 73.324Z" fill="#4CB7C4"/>
<path d="M134.719 119.316C133.994 119.316 133.406 118.73 133.406 118.008C133.406 117.285 133.994 116.699 134.719 116.699C135.445 116.699 136.033 117.285 136.033 118.008C136.033 118.73 135.445 119.316 134.719 119.316Z" fill="#4CB7C4"/>
<path d="M154.779 109.022C153.366 109.022 152.221 107.882 152.221 106.475C152.221 105.068 153.366 103.928 154.779 103.928C156.191 103.928 157.337 105.068 157.337 106.475C157.337 107.882 156.191 109.022 154.779 109.022Z" fill="#4CB7C4"/>
<path d="M134.719 143.235C133.519 143.235 132.546 142.266 132.546 141.071C132.546 139.876 133.519 138.908 134.719 138.908C135.919 138.908 136.892 139.876 136.892 141.071C136.892 142.266 135.919 143.235 134.719 143.235Z" fill="#4CB7C4"/>
<path d="M94.6013 142.099C94.0313 142.099 93.5691 141.639 93.5691 141.071C93.5691 140.504 94.0313 140.043 94.6013 140.043C95.1714 140.043 95.6335 140.504 95.6335 141.071C95.6335 141.639 95.1714 142.099 94.6013 142.099Z" fill="#4CB7C4"/>
<path d="M74.5426 154.593C73.4394 154.593 72.545 153.702 72.545 152.604C72.545 151.505 73.4394 150.615 74.5426 150.615C75.6459 150.615 76.5403 151.505 76.5403 152.604C76.5403 153.702 75.6459 154.593 74.5426 154.593Z" fill="#4CB7C4"/>
<path d="M54.4833 142.992C53.4179 142.992 52.5542 142.132 52.5542 141.071C52.5542 140.01 53.4179 139.15 54.4833 139.15C55.5487 139.15 56.4124 140.01 56.4124 141.071C56.4124 142.132 55.5487 142.992 54.4833 142.992Z" fill="#4CB7C4"/>
<path d="M34.4247 154.853C33.1774 154.853 32.1663 153.846 32.1663 152.604C32.1663 151.362 33.1774 150.355 34.4247 150.355C35.672 150.355 36.6831 151.362 36.6831 152.604C36.6831 153.846 35.672 154.853 34.4247 154.853Z" fill="#4CB7C4"/>
<path d="M174.837 188.496C174.119 188.496 173.536 187.916 173.536 187.2C173.536 186.485 174.119 185.905 174.837 185.905C175.556 185.905 176.138 186.485 176.138 187.2C176.138 187.916 175.556 188.496 174.837 188.496Z" fill="#4CB7C4"/>
<path d="M194.896 176.703C194.322 176.703 193.856 176.239 193.856 175.668C193.856 175.096 194.322 174.633 194.896 174.633C195.47 174.633 195.935 175.096 195.935 175.668C195.935 176.239 195.47 176.703 194.896 176.703Z" fill="#4CB7C4"/>
<path d="M194.896 153.094C194.624 153.094 194.403 152.875 194.403 152.604C194.403 152.333 194.624 152.113 194.896 152.113C195.168 152.113 195.388 152.333 195.388 152.604C195.388 152.875 195.168 153.094 194.896 153.094Z" fill="#4CB7C4"/>
<path d="M174.837 143.102C173.711 143.102 172.798 142.193 172.798 141.071C172.798 139.95 173.711 139.041 174.837 139.041C175.964 139.041 176.876 139.95 176.876 141.071C176.876 142.193 175.964 143.102 174.837 143.102Z" fill="#4CB7C4"/>
<path d="M154.778 177.341C153.849 177.341 153.097 176.592 153.097 175.667C153.097 174.743 153.849 173.994 154.778 173.994C155.706 173.994 156.459 174.743 156.459 175.667C156.459 176.592 155.706 177.341 154.778 177.341Z" fill="#4CB7C4"/>
<path d="M154.778 153.752C154.141 153.752 153.625 153.238 153.625 152.604C153.625 151.97 154.141 151.456 154.778 151.456C155.415 151.456 155.931 151.97 155.931 152.604C155.931 153.238 155.415 153.752 154.778 153.752Z" fill="#4CB7C4"/>
<path d="M114.661 153.544C114.139 153.544 113.717 153.123 113.717 152.604C113.717 152.085 114.139 151.664 114.661 151.664C115.182 151.664 115.604 152.085 115.604 152.604C115.604 153.123 115.182 153.544 114.661 153.544Z" fill="#4CB7C4"/>
<path d="M94.6013 188.782C93.7237 188.782 93.0124 188.074 93.0124 187.2C93.0124 186.326 93.7237 185.618 94.6013 185.618C95.4788 185.618 96.1902 186.326 96.1902 187.2C96.1902 188.074 95.4788 188.782 94.6013 188.782Z" fill="#4CB7C4"/>
<path d="M114.661 177.946C113.397 177.946 112.373 176.926 112.373 175.668C112.373 174.409 113.397 173.389 114.661 173.389C115.925 173.389 116.949 174.409 116.949 175.668C116.949 176.926 115.925 177.946 114.661 177.946Z" fill="#4CB7C4"/>
<path d="M34.4245 178.127C33.0606 178.127 31.955 177.026 31.955 175.667C31.955 174.309 33.0606 173.208 34.4245 173.208C35.7884 173.208 36.894 174.309 36.894 175.667C36.894 177.026 35.7884 178.127 34.4245 178.127Z" fill="#4CB7C4"/>
<path d="M134.719 188.714C133.879 188.714 133.199 188.036 133.199 187.2C133.199 186.364 133.879 185.686 134.719 185.686C135.559 185.686 136.24 186.364 136.24 187.2C136.24 188.036 135.559 188.714 134.719 188.714Z" fill="#4CB7C4"/>
<path d="M134.719 212.742C133.345 212.742 132.231 211.633 132.231 210.264C132.231 208.895 133.345 207.786 134.719 207.786C136.094 207.786 137.208 208.895 137.208 210.264C137.208 211.633 136.094 212.742 134.719 212.742Z" fill="#4CB7C4"/>
<path d="M74.5425 178.255C73.1074 178.255 71.944 177.097 71.944 175.668C71.944 174.238 73.1074 173.08 74.5425 173.08C75.9777 173.08 77.1411 174.238 77.1411 175.668C77.1411 177.097 75.9777 178.255 74.5425 178.255Z" fill="#4CB7C4"/>
<path d="M54.4832 188.152C53.9555 188.152 53.5277 187.726 53.5277 187.2C53.5277 186.675 53.9555 186.249 54.4832 186.249C55.0109 186.249 55.4387 186.675 55.4387 187.2C55.4387 187.726 55.0109 188.152 54.4832 188.152Z" fill="#4CB7C4"/>
<path d="M34.4247 223.706C33.3658 223.706 32.5073 222.851 32.5073 221.797C32.5073 220.742 33.3658 219.887 34.4247 219.887C35.4836 219.887 36.342 220.742 36.342 221.797C36.342 222.851 35.4836 223.706 34.4247 223.706Z" fill="#4CB7C4"/>
<path d="M54.4832 213.182C52.8647 213.182 51.5526 211.876 51.5526 210.264C51.5526 208.652 52.8647 207.346 54.4832 207.346C56.1018 207.346 57.4138 208.652 57.4138 210.264C57.4138 211.876 56.1018 213.182 54.4832 213.182Z" fill="#4CB7C4"/>
<path d="M194.896 222.179C194.684 222.179 194.512 222.007 194.512 221.796C194.512 221.584 194.684 221.413 194.896 221.413C195.108 221.413 195.28 221.584 195.28 221.796C195.28 222.007 195.108 222.179 194.896 222.179Z" fill="#4CB7C4"/>
<path d="M174.837 211.509C174.147 211.509 173.587 210.952 173.587 210.264C173.587 209.576 174.147 209.019 174.837 209.019C175.528 209.019 176.088 209.576 176.088 210.264C176.088 210.952 175.528 211.509 174.837 211.509Z" fill="#4CB7C4"/>
<path d="M154.779 224.975C153.016 224.975 151.586 223.551 151.586 221.796C151.586 220.04 153.016 218.617 154.779 218.617C156.542 218.617 157.971 220.04 157.971 221.796C157.971 223.551 156.542 224.975 154.779 224.975Z" fill="#4CB7C4"/>
<path d="M114.661 223.716C113.596 223.716 112.733 222.857 112.733 221.797C112.733 220.737 113.596 219.878 114.661 219.878C115.725 219.878 116.588 220.737 116.588 221.797C116.588 222.857 115.725 223.716 114.661 223.716Z" fill="#4CB7C4"/>
<path d="M94.6013 212.449C93.3894 212.449 92.407 211.471 92.407 210.264C92.407 209.057 93.3894 208.079 94.6013 208.079C95.8132 208.079 96.7957 209.057 96.7957 210.264C96.7957 211.471 95.8132 212.449 94.6013 212.449Z" fill="#4CB7C4"/>
<path d="M74.5428 224.294C73.157 224.294 72.0335 223.176 72.0335 221.796C72.0335 220.416 73.157 219.297 74.5428 219.297C75.9286 219.297 77.052 220.416 77.052 221.796C77.052 223.176 75.9286 224.294 74.5428 224.294Z" fill="#4CB7C4"/>
</g>
<defs>
<clipPath id="clip0_175_349">
<rect width="220" height="234.823" fill="white" transform="matrix(-1 -8.74228e-08 -8.74228e-08 1 220 0)"/>
</clipPath>
</defs>
</svg>
