<svg width="220" height="235" viewBox="0 0 220 235" fill="none" xmlns="http://www.w3.org/2000/svg">
<g clip-path="url(#clip0_65_8662)">
<path d="M45.1635 186.086L45.1202 186.111L25.0175 197.668L25.0175 220.832L25.0608 220.857L45.1635 232.414L45.2069 232.389L65.3096 220.832L65.3096 197.668L65.2663 197.643L45.1635 186.086ZM25.1916 197.767L45.1635 186.286L65.1346 197.767L65.1346 220.731L45.1635 232.214L25.1916 220.731L25.1916 197.767Z" fill="#4CB7C4"/>
<path d="M65.2222 82.2964L65.1788 82.3215L45.0761 93.8785L45.0761 117.043L45.1194 117.068L65.2221 128.625L65.2654 128.6L85.3673 117.043L85.3673 93.8786L85.324 93.8534L65.2222 82.2964ZM45.2502 93.9792L65.2222 82.4977L85.1932 93.9792L85.1932 116.943L65.2221 128.425L45.2502 116.943L45.2502 93.9792Z" fill="#4CB7C4"/>
<path d="M45.1635 47.7L45.1202 47.7251L25.0175 59.2821L25.0175 82.4464L25.0608 82.4716L45.1635 94.0286L45.2069 94.0034L65.3096 82.4464L65.3096 59.2821L65.2663 59.257L45.1635 47.7ZM25.1916 59.3818L45.1635 47.9003L65.1355 59.3819L65.1355 82.3458L45.1635 93.8273L25.1916 82.3467L25.1916 59.3818Z" fill="#4CB7C4"/>
<path d="M85.2807 47.7L85.2374 47.7251L65.1355 59.2821L65.1355 82.4464L65.1788 82.4716L85.2807 94.0286L85.324 94.0034L105.427 82.4464L105.427 59.2821L105.383 59.257L85.2807 47.7ZM65.3087 59.3818L85.2798 47.9003L105.252 59.3819L105.252 82.3458L85.2798 93.8273L65.3087 82.3458L65.3087 59.3818Z" fill="#4CB7C4"/>
<path d="M125.399 47.7L125.355 47.7252L105.253 59.2822L105.253 82.4465L105.296 82.4716L125.399 94.0286L125.442 94.0035L145.545 82.4465L145.545 59.2822L145.502 59.257L125.399 47.7ZM105.427 59.3819L125.399 47.9004L145.371 59.3819L145.371 82.3459L125.399 93.8274L105.427 82.3458L105.427 59.3819Z" fill="#4CB7C4"/>
<path d="M165.517 47.7L165.474 47.7252L145.371 59.2822L145.371 82.4465L145.414 82.4716L165.517 94.0286L165.56 94.0035L185.663 82.4465L185.663 59.2822L185.62 59.257L165.517 47.7ZM145.545 59.3819L165.517 47.9004L185.489 59.3819L185.489 82.3459L165.517 93.8274L145.545 82.3458L145.545 59.3819Z" fill="#4CB7C4"/>
<path d="M65.2221 13.1036L65.1788 13.1288L45.0761 24.6857L45.0761 47.85L45.1194 47.8752L65.2221 59.4322L65.2654 59.407L85.3673 47.8501L85.3673 24.6858L85.324 24.6606L65.2221 13.1036ZM45.2502 24.7864L65.2221 13.3049L85.1932 24.7864L85.1932 47.7503L65.2221 59.2318L45.2502 47.7503L45.2502 24.7864Z" fill="#4CB7C4"/>
<path d="M105.339 13.1036L105.296 13.1288L85.1932 24.6857L85.1932 47.85L85.2366 47.8752L105.339 59.4322L105.383 59.407L125.485 47.8501L125.485 24.6858L125.442 24.6606L105.339 13.1036ZM85.3674 24.7864L105.339 13.3049L125.311 24.7864L125.311 47.7503L105.339 59.2318L85.3674 47.7503L85.3674 24.7864Z" fill="#4CB7C4"/>
<path d="M145.457 13.1036L145.414 13.1288L125.311 24.6858L125.311 47.8501L125.355 47.8752L145.457 59.4322L145.501 59.407L165.603 47.8501L165.603 24.6858L165.56 24.6606L145.457 13.1036ZM125.485 24.7864L145.457 13.3049L165.429 24.7864L165.429 47.7503L145.457 59.2318L125.485 47.7503L125.485 24.7864Z" fill="#4CB7C4"/>
<path d="M25.1916 0.177292L25.1916 13.1539L45.1636 24.6354L65.1346 13.1539L65.1346 0.177299L65.3097 0.177299L65.3097 13.2536L45.2069 24.8115L45.1636 24.8358L25.0608 13.2788L25.0166 13.2536L25.0166 0.177292L25.1916 0.177292Z" fill="#4CB7C4"/>
<path d="M65.3097 0.177322L65.3097 13.1539L85.2807 24.6355L105.253 13.1539L105.253 0.177329L105.427 0.177329L105.427 13.2537L85.324 24.8116L85.2807 24.8358L65.1789 13.2788L65.1346 13.2537L65.1346 0.177322L65.3097 0.177322Z" fill="#4CB7C4"/>
<path d="M105.427 0.177322L105.427 13.1539L125.399 24.6355L145.371 13.1539L145.371 0.177329L145.544 0.177329L145.544 13.2537L125.442 24.8116L125.399 24.8358L105.296 13.2788L105.253 13.2537L105.253 0.177322L105.427 0.177322Z" fill="#4CB7C4"/>
<path d="M145.544 0.177338L145.544 13.1539L165.517 24.6355L185.489 13.1539L185.489 0.177345L185.662 0.177345L185.662 13.2537L165.56 24.8116L165.517 24.8358L145.414 13.2788L145.371 13.2537L145.371 0.177338L145.544 0.177338Z" fill="#4CB7C4"/>
<path d="M0 186.776L1.82542e-07 185.732L12.2223 178.705L12.2223 149.168L7.80439e-06 142.14L7.98677e-06 141.097L13.1309 148.646L13.1309 179.227L0 186.776Z" fill="#4CB7C4"/>
<path d="M38.8187 133.355L12.2232 148.646L12.2231 179.227L38.8196 194.517L65.4152 179.227L65.4152 148.646L38.8187 133.355ZM13.1308 149.168L38.8187 134.399L64.5066 149.168L64.5066 178.705L38.8187 193.473L13.1308 178.705L13.1308 149.168Z" fill="#4CB7C4"/>
<path d="M91.1041 133.355L64.5076 148.646L64.5076 179.227L91.1041 194.517L117.701 179.227L117.701 148.646L91.1041 133.355ZM65.4153 149.168L91.1032 134.399L116.791 149.168L116.791 178.705L91.1032 193.473L65.4153 178.705L65.4153 149.168Z" fill="#4CB7C4"/>
<path d="M12.677 149.428L1.27434e-06 142.14L1.45672e-06 141.097L12.677 148.385L38.3649 133.616L38.3649 104.079L12.677 89.3107L9.23692e-06 96.5991L9.41946e-06 95.5551L12.677 88.2667L39.2735 103.557L39.2735 134.138L12.677 149.428Z" fill="#4CB7C4"/>
<path d="M64.9614 88.2667L38.3649 103.557L38.3649 134.138L64.9614 149.428L91.5578 134.138L91.5578 103.557L64.9614 88.2667ZM39.2735 104.079L64.9614 89.3107L90.6492 104.079L90.6492 133.616L64.9614 148.384L39.2735 133.616L39.2735 104.079Z" fill="#4CB7C4"/>
<path d="M117.246 88.2668L90.6493 103.557L90.6493 134.138L117.246 149.428L143.842 134.138L143.842 103.557L117.246 88.2668ZM91.5579 104.079L117.246 89.3108L142.934 104.079L142.934 133.616L117.246 148.384L91.5579 133.616L91.5579 104.079Z" fill="#4CB7C4"/>
<path d="M0 96.5991L1.82543e-07 95.5551L12.2223 88.5273L12.2223 58.9901L7.80439e-06 51.9632L7.98693e-06 50.9192L13.1309 58.469L13.1309 89.0493L0 96.5991Z" fill="#4CB7C4"/>
<path d="M38.8188 43.178L12.2223 58.4681L12.2223 89.0493L38.8188 104.339L65.4153 89.0493L65.4153 58.4681L38.8188 43.178ZM13.1309 58.9901L38.8188 44.222L64.5067 58.9902L64.5067 88.5273L38.8188 103.295L13.1309 88.5273L13.1309 58.9901Z" fill="#4CB7C4"/>
<path d="M91.1041 43.178L64.5076 58.4681L64.5076 89.0493L91.1041 104.339L117.701 89.0493L117.701 58.4681L91.1041 43.178ZM65.4153 58.9902L91.1032 44.222L116.791 58.9902L116.791 88.5273L91.1032 103.295L65.4153 88.5273L65.4153 58.9902Z" fill="#4CB7C4"/>
<path d="M1.82542e-07 5.37767L9.04625 0.177339L10.8616 0.17734L0 6.42169L1.82542e-07 5.37767Z" fill="#4CB7C4"/>
<path d="M12.677 59.2516L1.27434e-06 51.9632L1.45688e-06 50.9192L12.677 58.2076L38.3649 43.4395L38.3649 13.9023L14.4924 0.17731L16.3078 0.17731L39.2735 13.3803L39.2735 43.9615L12.677 59.2516Z" fill="#4CB7C4"/>
<path d="M63.1461 0.177296L39.2736 13.9023L39.2736 43.4394L64.9615 58.2076L90.6494 43.4395L90.6494 13.9023L66.7769 0.177297L68.5923 0.177297L91.558 13.3803L91.558 43.9615L64.9615 59.2516L38.365 43.9615L38.365 13.3803L61.3307 0.177296L63.1461 0.177296Z" fill="#4CB7C4"/>
<path d="M115.431 0.177311L91.5579 13.9023L91.5579 43.4395L117.247 58.2076L142.935 43.4395L142.935 13.9023L119.061 0.177312L120.877 0.177312L143.842 13.3803L143.842 43.9615L117.247 59.2516L90.6493 43.9615L90.6493 13.3803L113.616 0.177311L115.431 0.177311Z" fill="#4CB7C4"/>
<path d="M0 6.42169L1.82542e-07 5.37767L9.04625 0.177339L10.8616 0.17734L0 6.42169Z" fill="#4CB7C4"/>
<path d="M16.3079 0.177353L38.8188 13.1189L61.3307 0.177361L63.1461 0.177361L38.8188 14.1629L14.4916 0.177353L16.3079 0.177353Z" fill="#4CB7C4"/>
<path d="M68.5922 0.177338L91.104 13.1189L113.615 0.177346L115.431 0.177346L91.104 14.1629L66.7759 0.177338L68.5922 0.177338Z" fill="#4CB7C4"/>
<path d="M120.877 0.177353L143.388 13.1189L165.9 0.177361L167.716 0.177361L143.388 14.1629L119.061 0.177353L120.877 0.177353Z" fill="#4CB7C4"/>
<path d="M220 0.177361L195.673 14.1629L171.346 0.177353L173.162 0.177353L195.673 13.1189L218.185 0.177361" fill="#4CB7C4"/>
<path d="M65.2213 219.345C66.0181 219.345 66.6641 219.988 66.6641 220.782C66.6641 221.575 66.0181 222.218 65.2213 222.218C64.4245 222.218 63.7786 221.575 63.7786 220.782C63.7786 219.988 64.4245 219.345 65.2213 219.345Z" fill="#4CB7C4"/>
<path d="M45.1627 184.348C46.1817 184.348 47.0078 185.171 47.0078 186.185C47.0078 187.2 46.1817 188.023 45.1627 188.023C44.1436 188.023 43.3175 187.2 43.3175 186.185C43.3175 185.171 44.1436 184.348 45.1627 184.348Z" fill="#4CB7C4"/>
<path d="M25.1041 196.562C25.7454 196.562 26.2653 197.079 26.2653 197.718C26.2653 198.357 25.7454 198.874 25.1041 198.874C24.4628 198.874 23.9429 198.357 23.9429 197.718C23.9429 197.079 24.4628 196.562 25.1041 196.562Z" fill="#4CB7C4"/>
<path d="M25.1041 219.905C25.5905 219.905 25.9848 220.297 25.9848 220.782C25.9848 221.266 25.5905 221.659 25.1041 221.659C24.6178 221.659 24.2235 221.266 24.2235 220.782C24.2235 220.297 24.6178 219.905 25.1041 219.905Z" fill="#4CB7C4"/>
<path d="M45.1627 229.627C46.6526 229.627 47.8605 230.83 47.8605 232.314C47.8605 233.797 46.6526 235 45.1627 235C43.6727 235 42.4648 233.797 42.4648 232.314C42.4648 230.83 43.6727 229.627 45.1627 229.627Z" fill="#4CB7C4"/>
<path d="M65.2213 195.459C66.4735 195.459 67.4887 196.47 67.4887 197.717C67.4887 198.964 66.4735 199.975 65.2213 199.975C63.969 199.975 62.9539 198.964 62.9539 197.717C62.9539 196.47 63.969 195.459 65.2213 195.459Z" fill="#4CB7C4"/>
<path d="M45.1627 114.888C46.3298 114.888 47.2758 115.83 47.2758 116.993C47.2758 118.155 46.3298 119.097 45.1627 119.097C43.9956 119.097 43.0496 118.155 43.0496 116.993C43.0496 115.83 43.9956 114.888 45.1627 114.888Z" fill="#4CB7C4"/>
<path d="M25.1041 128.34C25.2067 128.34 25.29 128.423 25.29 128.525C25.29 128.627 25.2067 128.71 25.1041 128.71C25.0014 128.71 24.9182 128.627 24.9182 128.525C24.9182 128.423 25.0014 128.34 25.1041 128.34Z" fill="#4CB7C4"/>
<path d="M25.1041 149.911C26.0345 149.911 26.7887 150.662 26.7887 151.589C26.7887 152.515 26.0345 153.266 25.1041 153.266C24.1738 153.266 23.4196 152.515 23.4196 151.589C23.4196 150.662 24.1738 149.911 25.1041 149.911Z" fill="#4CB7C4"/>
<path d="M45.1627 161.676C45.9645 161.676 46.6145 162.323 46.6145 163.122C46.6145 163.92 45.9645 164.567 45.1627 164.567C44.3609 164.567 43.7109 163.92 43.7109 163.122C43.7109 162.323 44.3609 161.676 45.1627 161.676Z" fill="#4CB7C4"/>
<path d="M85.2808 115.684C86.0063 115.684 86.5945 116.27 86.5945 116.993C86.5945 117.715 86.0063 118.301 85.2808 118.301C84.5552 118.301 83.967 117.715 83.967 116.993C83.967 116.27 84.5552 115.684 85.2808 115.684Z" fill="#4CB7C4"/>
<path d="M65.2212 125.978C66.6339 125.978 67.7791 127.119 67.7791 128.525C67.7791 129.932 66.6339 131.072 65.2212 131.072C63.8085 131.072 62.6632 129.932 62.6632 128.525C62.6632 127.119 63.8085 125.978 65.2212 125.978Z" fill="#4CB7C4"/>
<path d="M85.2807 91.7654C86.4807 91.7654 87.4534 92.734 87.4534 93.9289C87.4534 95.1238 86.4807 96.0924 85.2807 96.0924C84.0808 96.0924 83.108 95.1238 83.108 93.9289C83.108 92.734 84.0808 91.7654 85.2807 91.7654Z" fill="#4CB7C4"/>
<path d="M125.399 92.901C125.969 92.901 126.431 93.3612 126.431 93.9289C126.431 94.4965 125.969 94.9567 125.399 94.9567C124.829 94.9567 124.367 94.4965 124.367 93.9289C124.367 93.3612 124.829 92.901 125.399 92.901Z" fill="#4CB7C4"/>
<path d="M145.457 80.407C146.561 80.407 147.455 81.2976 147.455 82.3962C147.455 83.4948 146.561 84.3854 145.457 84.3854C144.354 84.3854 143.46 83.4948 143.46 82.3962C143.46 81.2976 144.354 80.407 145.457 80.407Z" fill="#4CB7C4"/>
<path d="M165.517 92.008C166.582 92.008 167.446 92.868 167.446 93.9289C167.446 94.9898 166.582 95.8498 165.517 95.8498C164.451 95.8498 163.588 94.9898 163.588 93.9289C163.588 92.868 164.451 92.008 165.517 92.008Z" fill="#4CB7C4"/>
<path d="M185.575 80.1473C186.823 80.1473 187.834 81.1541 187.834 82.3961C187.834 83.6382 186.823 84.645 185.575 84.645C184.328 84.645 183.317 83.6382 183.317 82.3961C183.317 81.1541 184.328 80.1473 185.575 80.1473Z" fill="#4CB7C4"/>
<path d="M45.1627 46.5042C45.8812 46.5042 46.4637 47.0842 46.4637 47.7997C46.4637 48.5153 45.8812 49.0953 45.1627 49.0953C44.4441 49.0953 43.8616 48.5153 43.8616 47.7997C43.8616 47.0842 44.4441 46.5042 45.1627 46.5042Z" fill="#4CB7C4"/>
<path d="M25.1041 58.2974C25.6782 58.2974 26.1435 58.7608 26.1435 59.3325C26.1435 59.9041 25.6782 60.3675 25.1041 60.3675C24.5301 60.3675 24.0647 59.9041 24.0647 59.3325C24.0647 58.7608 24.5301 58.2974 25.1041 58.2974Z" fill="#4CB7C4"/>
<path d="M25.1041 81.9056C25.3762 81.9056 25.5967 82.1252 25.5967 82.3962C25.5967 82.6671 25.3762 82.8867 25.1041 82.8867C24.832 82.8867 24.6115 82.6671 24.6115 82.3962C24.6115 82.1252 24.832 81.9056 25.1041 81.9056Z" fill="#4CB7C4"/>
<path d="M45.1627 91.8983C46.2889 91.8983 47.2018 92.8074 47.2018 93.9289C47.2018 95.0503 46.2889 95.9594 45.1627 95.9594C44.0365 95.9594 43.1235 95.0503 43.1235 93.9289C43.1235 92.8074 44.0365 91.8983 45.1627 91.8983Z" fill="#4CB7C4"/>
<path d="M65.2222 57.6586C66.1506 57.6586 66.9032 58.408 66.9032 59.3325C66.9032 60.2569 66.1506 61.0063 65.2222 61.0063C64.2939 61.0063 63.5413 60.2569 63.5413 59.3325C63.5413 58.408 64.2939 57.6586 65.2222 57.6586Z" fill="#4CB7C4"/>
<path d="M65.2222 81.2479C65.8591 81.2479 66.3753 81.762 66.3753 82.3961C66.3753 83.0303 65.8591 83.5444 65.2222 83.5444C64.5854 83.5444 64.0691 83.0303 64.0691 82.3961C64.0691 81.762 64.5854 81.2479 65.2222 81.2479Z" fill="#4CB7C4"/>
<path d="M105.339 81.4563C105.861 81.4563 106.283 81.8771 106.283 82.3961C106.283 82.9152 105.861 83.3359 105.339 83.3359C104.818 83.3359 104.396 82.9152 104.396 82.3961C104.396 81.8771 104.818 81.4563 105.339 81.4563Z" fill="#4CB7C4"/>
<path d="M125.399 46.2175C126.276 46.2175 126.988 46.9259 126.988 47.7998C126.988 48.6736 126.276 49.382 125.399 49.382C124.521 49.382 123.81 48.6736 123.81 47.7998C123.81 46.9259 124.521 46.2175 125.399 46.2175Z" fill="#4CB7C4"/>
<path d="M105.339 57.0539C106.603 57.0539 107.627 58.0741 107.627 59.3325C107.627 60.5908 106.603 61.611 105.339 61.611C104.076 61.611 103.051 60.5908 103.051 59.3325C103.051 58.0741 104.076 57.0539 105.339 57.0539Z" fill="#4CB7C4"/>
<path d="M185.575 56.8734C186.939 56.8734 188.045 57.9744 188.045 59.3325C188.045 60.6906 186.939 61.7916 185.575 61.7916C184.211 61.7916 183.106 60.6906 183.106 59.3325C183.106 57.9744 184.211 56.8734 185.575 56.8734Z" fill="#4CB7C4"/>
<path d="M85.2807 46.2858C86.1204 46.2858 86.8011 46.9636 86.8011 47.7997C86.8011 48.6358 86.1204 49.3136 85.2807 49.3136C84.4411 49.3136 83.7604 48.6358 83.7604 47.7997C83.7604 46.9636 84.4411 46.2858 85.2807 46.2858Z" fill="#4CB7C4"/>
<path d="M85.2807 22.2581C86.6551 22.2581 87.7692 23.3675 87.7692 24.7361C87.7692 26.1046 86.6551 27.2141 85.2807 27.2141C83.9064 27.2141 82.7922 26.1046 82.7922 24.7361C82.7922 23.3675 83.9064 22.2581 85.2807 22.2581Z" fill="#4CB7C4"/>
<path d="M145.457 56.7449C146.892 56.7449 148.056 57.9034 148.056 59.3325C148.056 60.7616 146.892 61.92 145.457 61.92C144.022 61.92 142.859 60.7616 142.859 59.3325C142.859 57.9034 144.022 56.7449 145.457 56.7449Z" fill="#4CB7C4"/>
<path d="M165.517 46.8483C166.044 46.8483 166.472 47.2742 166.472 47.7997C166.472 48.3252 166.044 48.7512 165.517 48.7512C164.989 48.7512 164.561 48.3252 164.561 47.7997C164.561 47.2742 164.989 46.8483 165.517 46.8483Z" fill="#4CB7C4"/>
<path d="M185.575 11.2941C186.634 11.2941 187.493 12.1489 187.493 13.2033C187.493 14.2578 186.634 15.1126 185.575 15.1126C184.516 15.1126 183.658 14.2578 183.658 13.2033C183.658 12.1489 184.516 11.2941 185.575 11.2941Z" fill="#4CB7C4"/>
<path d="M165.517 21.8179C167.135 21.8179 168.447 23.1244 168.447 24.7361C168.447 26.3478 167.135 27.6543 165.517 27.6543C163.898 27.6543 162.586 26.3478 162.586 24.7361C162.586 23.1244 163.898 21.8179 165.517 21.8179Z" fill="#4CB7C4"/>
<path d="M25.1041 12.8215C25.3164 12.8215 25.4885 12.9928 25.4885 13.2042C25.4885 13.4156 25.3164 13.587 25.1041 13.587C24.8918 13.587 24.7197 13.4156 24.7197 13.2042C24.7197 12.9928 24.8918 12.8215 25.1041 12.8215Z" fill="#4CB7C4"/>
<path d="M45.1627 23.4908C45.8533 23.4908 46.4132 24.0483 46.4132 24.7361C46.4132 25.4238 45.8533 25.9813 45.1627 25.9813C44.472 25.9813 43.9121 25.4238 43.9121 24.7361C43.9121 24.0483 44.472 23.4908 45.1627 23.4908Z" fill="#4CB7C4"/>
<path d="M65.2213 10.0255C66.9843 10.0255 68.4136 11.4487 68.4136 13.2042C68.4136 14.9598 66.9843 16.383 65.2213 16.383C63.4583 16.383 62.0291 14.9598 62.0291 13.2042C62.0291 11.4487 63.4583 10.0255 65.2213 10.0255Z" fill="#4CB7C4"/>
<path d="M105.339 11.2842C106.404 11.2842 107.267 12.1434 107.267 13.2033C107.267 14.2632 106.404 15.1224 105.339 15.1224C104.275 15.1224 103.412 14.2632 103.412 13.2033C103.412 12.1434 104.275 11.2842 105.339 11.2842Z" fill="#4CB7C4"/>
<path d="M125.399 22.551C126.611 22.551 127.593 23.5293 127.593 24.7361C127.593 25.9429 126.611 26.9211 125.399 26.9211C124.187 26.9211 123.204 25.9429 123.204 24.7361C123.204 23.5293 124.187 22.551 125.399 22.551Z" fill="#4CB7C4"/>
<path d="M145.457 10.7056C146.843 10.7056 147.967 11.8243 147.967 13.2042C147.967 14.5842 146.843 15.7029 145.457 15.7029C144.072 15.7029 142.948 14.5842 142.948 13.2042C142.948 11.8243 144.072 10.7056 145.457 10.7056Z" fill="#4CB7C4"/>
</g>
<defs>
<clipPath id="clip0_65_8662">
<rect width="220" height="234.823" fill="white" transform="matrix(1 1.74846e-07 1.74846e-07 -1 0 235)"/>
</clipPath>
</defs>
</svg>
