<svg width="140" height="86" viewBox="0 0 140 86" fill="none" xmlns="http://www.w3.org/2000/svg">
<path d="M54.0687 36.6586C53.8689 36.5181 53.678 36.3663 53.4973 36.2039L53.7447 35.9528C53.9148 36.1057 54.0945 36.2486 54.2826 36.3809L54.0687 36.6586Z" fill="#5F727F"/>
<path d="M52.5047 35.0455C52.2279 34.62 52.0099 34.1622 51.856 33.6833L52.2009 33.582C52.3457 34.0325 52.5508 34.4632 52.8111 34.8634L52.5047 35.0455ZM51.591 32.2086C51.5875 32.1271 51.5857 32.0455 51.5857 31.9639C51.5857 31.5449 51.633 31.1271 51.7268 30.7178L52.0793 30.7917C51.9911 31.1767 51.9466 31.5697 51.9466 31.9639C51.9466 32.0407 51.9483 32.1175 51.9516 32.1942L51.591 32.2086ZM52.5783 29.4676L52.2574 29.3098C52.4064 29.0334 52.5782 28.7688 52.771 28.5183C52.8893 28.3647 53.0171 28.218 53.1538 28.0791L53.4167 28.3152C53.29 28.4442 53.1714 28.5802 53.0617 28.7227C52.8802 28.9584 52.7186 29.2075 52.5783 29.4676H52.5783ZM54.5747 27.4672L54.4043 27.1632C54.8701 26.9247 55.3731 26.7597 55.894 26.6744L55.9551 27.0143C55.4725 27.0933 55.0063 27.2462 54.5747 27.4672H54.5747ZM58.8028 27.4295C58.3675 27.2154 57.8987 27.0705 57.4147 27.0003L57.4689 26.6594C57.9916 26.7351 58.4978 26.8917 58.9678 27.1228L58.8028 27.4295Z" fill="#5F727F"/>
<path d="M60.3757 28.7941C60.2575 28.6064 60.1207 28.43 59.9673 28.2673L60.2354 28.0364C60.4043 28.2155 60.5548 28.4098 60.6849 28.6164L60.3757 28.7941Z" fill="#5F727F"/>
<path d="M46.5407 25.1255L46.25 24.9212C46.3944 24.7336 46.5465 24.5481 46.7023 24.3699L46.9793 24.5909C46.8283 24.7638 46.6807 24.9437 46.5407 25.1255Z" fill="#5F727F"/>
<path d="M64.4208 24.7267C64.1436 24.359 63.8364 24.0127 63.5021 23.691L63.7582 23.448C64.1058 23.7825 64.4253 24.1427 64.7137 24.5252L64.4208 24.7267ZM47.9612 23.6004L47.7153 23.3479C48.0752 23.0281 48.4557 22.7302 48.8547 22.4561L49.0653 22.7362C48.6786 23.0018 48.3099 23.2904 47.9612 23.6004ZM62.4248 22.8052C62.0409 22.536 61.6399 22.2897 61.2241 22.0678L61.3999 21.7667C61.8288 21.9955 62.2424 22.2496 62.6383 22.5273L62.4248 22.8052ZM50.2746 22.0122L50.1028 21.709C50.5348 21.4855 50.9812 21.2881 51.4391 21.118L51.5698 21.4394C51.126 21.6043 50.6934 21.7956 50.2746 22.0122ZM59.9368 21.4799C59.4952 21.3101 59.0428 21.1672 58.5823 21.0518L58.6737 20.7182C59.1489 20.8373 59.6158 20.9848 60.0716 21.16L59.9368 21.4799ZM52.9299 21.026L52.8422 20.6915C53.3188 20.5776 53.8023 20.4921 54.2899 20.4355L54.3333 20.7779C53.8606 20.8328 53.3919 20.9156 52.9299 21.026V21.026ZM57.1819 20.7903C56.7098 20.7314 56.2342 20.7009 55.7581 20.6987L55.7597 20.3539C56.251 20.3561 56.7416 20.3877 57.2287 20.4483L57.1819 20.7903Z" fill="#5F727F"/>
<path d="M65.4513 26.5051C65.3625 26.2971 65.264 26.0901 65.1587 25.8899L65.4812 25.735C65.5907 25.9433 65.6931 26.1585 65.7854 26.3748L65.4513 26.5051Z" fill="#5F727F"/>
<path d="M66.4404 46.7702L66.3164 46.4463C66.5388 46.3686 66.7628 46.2854 66.9824 46.199L67.1198 46.5179C66.8958 46.606 66.6673 46.6909 66.4404 46.7702Z" fill="#E4E4E4"/>
<path d="M60.8137 47.8236L60.8006 47.479C61.2688 47.4627 61.7421 47.4284 62.2073 47.3771L62.2486 47.7197C61.7741 47.772 61.2914 47.807 60.8137 47.8236ZM59.3747 47.8196C58.8966 47.8002 58.414 47.7625 57.9404 47.7072L57.9841 47.365C58.4483 47.419 58.9213 47.4561 59.39 47.4751L59.3747 47.8196ZM63.6706 47.5085L63.6012 47.17C64.0608 47.084 64.5227 46.9794 64.9739 46.8592L65.0708 47.1914C64.6106 47.314 64.1395 47.4207 63.6706 47.5085ZM56.52 47.4869C56.0516 47.3959 55.5813 47.2859 55.1222 47.1597L55.2219 46.8283C55.6719 46.9519 56.1328 47.0599 56.5919 47.149L56.52 47.4869ZM53.756 46.7275C53.3088 46.5668 52.8627 46.3868 52.4301 46.1926L52.5836 45.8806C53.0075 46.0708 53.4447 46.2472 53.883 46.4047L53.756 46.7275ZM51.153 45.5593C50.7391 45.3338 50.3284 45.089 49.9321 44.8319L50.1349 44.5466C50.5234 44.7988 50.926 45.0386 51.3317 45.2597L51.153 45.5593Z" fill="#5F727F"/>
<path d="M48.7712 44.0091C48.5829 43.8623 48.3964 43.7093 48.2168 43.5544L48.4586 43.2983C48.6338 43.4495 48.8157 43.5987 48.9994 43.7421L48.7712 44.0091Z" fill="#E4E4E4"/>
<path d="M38.7808 9.23873L38.5955 8.94283C38.8027 8.82428 39.014 8.70692 39.2234 8.59399L39.4008 8.89427C39.194 9.00581 38.9854 9.12165 38.7808 9.23873Z" fill="#E4E4E4"/>
<path d="M73.5217 13.9483C73.2125 13.6041 72.8871 13.2646 72.5544 12.9393L72.8126 12.6983C73.1506 13.0289 73.4813 13.3739 73.7955 13.7236L73.5217 13.9483ZM71.5214 11.9917C71.1688 11.6883 70.8006 11.3912 70.4272 11.1088L70.6512 10.8383C71.0306 11.1253 71.4046 11.4271 71.7629 11.7354L71.5214 11.9917ZM69.2769 10.2916C68.8866 10.0297 68.485 9.77434 68.0832 9.53277L68.2755 9.2409C68.6823 9.48556 69.089 9.74409 69.4844 10.0093L69.2769 10.2916ZM66.851 8.83303C66.4361 8.61087 66.0095 8.39596 65.5829 8.19424L65.743 7.8852C66.175 8.08945 66.6072 8.30717 67.0274 8.53218L66.851 8.83303ZM40.6678 8.25143L40.5068 7.94284C40.9385 7.73725 41.3815 7.53968 41.8235 7.35558L41.9677 7.67169C41.5313 7.85343 41.094 8.04847 40.6678 8.25143L40.6678 8.25143ZM64.2821 7.6186C63.8453 7.43809 63.3978 7.26617 62.952 7.10761L63.0779 6.78443C63.5295 6.94507 63.9828 7.11923 64.4253 7.30204L64.2821 7.6186ZM43.2969 7.15639L43.1698 6.83365C43.6205 6.67161 44.0823 6.51833 44.5423 6.37812L44.652 6.70669C44.1978 6.8451 43.7419 6.99642 43.2969 7.15638L43.2969 7.15639ZM61.596 6.66274C61.1424 6.52635 60.6787 6.3994 60.2177 6.2854L60.3081 5.95155C60.775 6.06701 61.2448 6.19565 61.7043 6.33384L61.596 6.66274ZM46.0293 6.32368L45.9373 5.99017C46.4029 5.87292 46.8786 5.76538 47.3511 5.67063L47.4252 6.00807C46.9587 6.10169 46.489 6.20789 46.0293 6.32368L46.0293 6.32368ZM58.8208 5.9763C58.355 5.88521 57.88 5.80444 57.409 5.73624L57.4631 5.39533C57.9402 5.46436 58.4214 5.5462 58.8931 5.63841L58.8208 5.9763ZM48.8361 5.76094L48.78 5.42025C49.2559 5.3488 49.7405 5.28801 50.2205 5.23963L50.2583 5.58257C49.7844 5.63039 49.3059 5.69039 48.8361 5.76094V5.76094ZM55.9861 5.56579C55.5129 5.52077 55.0317 5.48693 54.5559 5.46509L54.5732 5.12069C55.0551 5.14275 55.5425 5.17704 56.0218 5.22262L55.9861 5.56579ZM51.6882 5.47362L51.6687 5.12934C52.1505 5.10436 52.6391 5.091 53.1209 5.0896L53.122 5.43445C52.6463 5.43585 52.1639 5.44904 51.6882 5.47362L51.6882 5.47362Z" fill="#5F727F"/>
<path d="M74.8455 15.5749C74.7087 15.3889 74.5672 15.2028 74.4248 15.0218L74.7133 14.8146C74.858 14.9985 75.0018 15.1877 75.1408 15.3768L74.8455 15.5749Z" fill="#5F727F"/>
<path d="M58.4114 71.3415C58.1721 71.3122 57.9329 71.2809 57.6938 71.2477L57.7457 70.9065C57.9827 70.9393 58.22 70.9703 58.4574 70.9995L58.4114 71.3415Z" fill="#E4E4E4"/>
<path d="M56.2335 71.0213C55.7505 70.9384 55.2622 70.8464 54.782 70.748L54.8578 70.4108C55.334 70.5084 55.8183 70.5996 56.2973 70.6818L56.2335 71.0213ZM53.3411 70.4285C52.8638 70.3145 52.3831 70.1914 51.9121 70.0626L52.0114 69.7311C52.4785 69.8588 52.9553 69.9809 53.4286 70.0939L53.3411 70.4285ZM50.497 69.651C50.029 69.5067 49.5581 69.3529 49.0971 69.1941L49.2196 68.8697C49.6767 69.0272 50.1438 69.1797 50.6079 69.3229L50.497 69.651ZM47.7143 68.6925C47.2588 68.5188 46.7998 68.3351 46.3499 68.1465L46.4949 67.8308C46.9411 68.0178 47.3964 68.2 47.8481 68.3722L47.7143 68.6925ZM45.0055 67.5571C44.5627 67.3543 44.1177 67.1416 43.6827 66.9249L43.8495 66.6191C44.2809 66.834 44.7223 67.045 45.1615 67.2461L45.0055 67.5571ZM42.3827 66.2506C41.9568 66.0208 41.5277 65.7802 41.1071 65.5354L41.2949 65.2409C41.712 65.4837 42.1377 65.7224 42.5602 65.9503L42.3827 66.2506ZM39.8572 64.78C39.447 64.5229 39.0355 64.2556 38.634 63.9855L38.8418 63.7035C39.24 63.9714 39.6483 64.2366 40.0551 64.4916L39.8572 64.78ZM37.4383 63.1515C37.0459 62.8669 36.6553 62.5713 36.2774 62.2729L36.5073 62.007C36.8814 62.3024 37.2681 62.5951 37.6565 62.8768L37.4383 63.1515ZM35.1555 61.3492C34.7898 61.0351 34.4262 60.7096 34.0748 60.3815L34.327 60.1349C34.6748 60.4595 35.0347 60.7818 35.3968 61.0926L35.1555 61.3492ZM33.0373 59.3715C32.7004 59.0294 32.3666 58.6759 32.0451 58.3208L32.3181 58.0952C32.6362 58.4467 32.9666 58.7966 33.3001 59.1352L33.0373 59.3715ZM31.1001 57.231C30.7943 56.8629 30.4928 56.4838 30.2039 56.1042L30.4957 55.9014C30.7817 56.2771 31.0801 56.6523 31.3827 57.0166L31.1001 57.231Z" fill="#5F727F"/>
<path d="M29.3538 54.9361C29.2199 54.7435 29.0882 54.5498 28.9587 54.3551L29.2634 54.1702C29.3915 54.3629 29.5219 54.5546 29.6544 54.7453L29.3538 54.9361Z" fill="#E4E4E4"/>
<path d="M106.551 14.9196L102.053 18.8766L105.628 13.145C102.811 8.26476 98.2051 4.047 98.2051 4.047C98.2051 4.047 88.6489 12.7956 88.6489 19.6726C88.6489 26.5496 92.9273 28.9508 98.2051 28.9508C103.483 28.9508 107.761 26.5496 107.761 19.6726C107.761 18.1419 107.287 16.5186 106.551 14.9196Z" fill="#EEEEEE"/>
<path d="M100.896 19.0908V19.4298C100.875 23.37 100.18 26.4443 98.8152 28.609C98.7959 28.6409 98.7748 28.6711 98.7555 28.703L98.6027 28.6141L98.457 28.5268C99.9708 26.1892 100.506 22.885 100.526 19.4483C100.527 19.3375 100.529 19.2251 100.527 19.1126C100.522 17.6577 100.429 16.186 100.28 14.7563C100.269 14.6455 100.257 14.5331 100.245 14.4206C100.037 12.5345 99.7389 10.7322 99.4334 9.16649C99.4123 9.05573 99.3895 8.94498 99.3666 8.8359C98.838 6.18785 98.2989 4.26977 98.176 3.84521C98.1619 3.79319 98.1531 3.76466 98.1514 3.75795L98.3182 3.71264L98.32 3.71096L98.4886 3.66565C98.4903 3.67237 98.5202 3.76802 98.5693 3.9459C98.7572 4.61042 99.2455 6.41439 99.7249 8.79394C99.746 8.90135 99.7688 9.01211 99.7899 9.12286C100.039 10.3932 100.283 11.8129 100.477 13.303C100.526 13.6772 100.57 14.0464 100.608 14.4106C100.622 14.523 100.635 14.6354 100.645 14.7462C100.807 16.2917 100.89 17.7399 100.896 19.0908Z" fill="#BBBBBB"/>
<path d="M99.7249 8.79407C99.6073 8.80918 99.4878 8.82428 99.3667 8.83602C99.0376 8.8684 98.707 8.88464 98.3762 8.8847C96.9663 8.88649 95.5741 8.586 94.3019 8.00537C94.2281 8.09431 94.1544 8.18325 94.0789 8.27386C95.4171 8.89808 96.887 9.22181 98.3762 9.22032C98.7293 9.22023 99.0822 9.2023 99.4334 9.16662C99.5528 9.15487 99.6722 9.13976 99.7899 9.12299C100.761 8.98987 101.706 8.71657 102.591 8.31246C102.515 8.22016 102.442 8.12954 102.37 8.0406C101.532 8.41483 100.641 8.66873 99.7249 8.79407Z" fill="#BBBBBB"/>
<path d="M100.608 14.4106C100.487 14.4173 100.366 14.4207 100.245 14.4207C100.208 14.4224 100.169 14.4224 100.132 14.4224C98.6046 14.4224 97.0996 14.0694 95.7456 13.3936C94.3915 12.7177 93.2286 11.739 92.3559 10.5409C92.2857 10.6399 92.2155 10.7389 92.147 10.8396C93.0566 12.0519 94.2553 13.0396 95.644 13.721C97.0326 14.4025 98.5712 14.7579 100.132 14.758C100.181 14.758 100.231 14.758 100.28 14.7563C100.403 14.7546 100.524 14.7513 100.645 14.7462C102.52 14.6544 104.328 14.0486 105.852 13.001C105.796 12.902 105.74 12.803 105.682 12.704C104.2 13.7325 102.437 14.3256 100.608 14.4106Z" fill="#BBBBBB"/>
<path d="M100.896 19.0908C100.773 19.1009 100.65 19.1076 100.527 19.1126C100.396 19.1177 100.264 19.121 100.132 19.121C98.0795 19.1188 96.0828 18.4812 94.441 17.3038C92.7992 16.1265 91.6007 14.4726 91.0248 12.5898C90.9458 12.7258 90.8668 12.86 90.7913 12.996C91.4401 14.8743 92.6918 16.5096 94.3687 17.6694C96.0455 18.8292 98.0622 19.4546 100.132 19.4567C100.264 19.4567 100.396 19.455 100.526 19.4483C100.65 19.4449 100.773 19.4382 100.896 19.4298C103.379 19.2442 105.696 18.1638 107.376 16.4075C107.34 16.2834 107.297 16.1609 107.255 16.0367C105.632 17.8061 103.351 18.9017 100.896 19.0908Z" fill="#BBBBBB"/>
<path d="M14.4807 17.6596L17.4145 22.7854L12.4557 18.0879C6.81994 19.5225 1.42529 22.7766 1.42529 22.7766C1.42529 22.7766 8.0055 33.7486 14.9899 35.4074C21.9742 37.0662 25.4449 33.6778 26.7179 28.7835C27.9909 23.8894 26.5842 19.3426 19.5998 17.6838C18.0453 17.3146 16.2822 17.3627 14.4807 17.6596Z" fill="#EEEEEE"/>
<path d="M17.3532 23.9097L17.6974 23.9915C21.6941 24.9614 24.6486 26.3479 26.518 28.1354C26.5458 28.161 26.5714 28.1878 26.5991 28.2135L26.4719 28.3337L26.3481 28.4478C24.3392 26.4801 21.1126 25.1864 17.6268 24.3396C17.5148 24.3112 17.401 24.2825 17.2864 24.257C15.8075 23.9109 14.2904 23.6423 12.8023 23.4358C12.6872 23.4189 12.5701 23.4032 12.4529 23.3874C10.4873 23.1246 8.58488 22.9668 6.92106 22.8725C6.80349 22.8653 6.6855 22.8598 6.56921 22.8546C3.75231 22.7061 1.67425 22.7434 1.21341 22.755C1.15719 22.7555 1.1261 22.7568 1.11885 22.7568L1.11308 22.5911L1.1118 22.5891L1.10645 22.4218C1.11369 22.4218 1.21804 22.4172 1.41055 22.4145C2.13078 22.4005 4.08067 22.3829 6.61301 22.5123C6.72717 22.5187 6.84517 22.5242 6.96273 22.5314C8.31304 22.6065 9.81377 22.7226 11.3738 22.9029C11.7657 22.9476 12.1512 22.9959 12.5304 23.0479C12.648 23.062 12.7651 23.0777 12.8802 23.0947C14.4888 23.3176 15.9798 23.5893 17.3532 23.9097Z" fill="#BBBBBB"/>
<path d="M6.61299 22.5123C6.59995 22.625 6.58649 22.7394 6.56918 22.8546C6.52269 23.1676 6.45945 23.4781 6.37971 23.7849C6.04146 25.0927 5.40045 26.3113 4.50391 27.351C4.57644 27.4409 4.64898 27.5307 4.7228 27.6226C5.67956 26.5321 6.36288 25.2472 6.72057 23.8658C6.80566 23.5383 6.87257 23.2067 6.92104 22.8725C6.93791 22.7589 6.95137 22.6445 6.96271 22.5313C7.06179 21.5986 7.01204 20.6568 6.81517 19.7383C6.70322 19.786 6.59339 19.8326 6.4857 19.8779C6.66365 20.7452 6.70655 21.6329 6.61299 22.5123Z" fill="#BBBBBB"/>
<path d="M12.5302 23.0479C12.5078 23.1618 12.482 23.275 12.4528 23.3874C12.4456 23.422 12.4363 23.4578 12.4274 23.492C12.0589 24.9087 11.3374 26.2192 10.3244 27.3118C9.31142 28.4044 8.03693 29.2468 6.60962 29.7671C6.69322 29.8561 6.77684 29.9451 6.86257 30.0329C8.31318 29.4818 9.60551 28.6084 10.6325 27.485C11.6595 26.3616 12.3916 25.0206 12.7682 23.573C12.7801 23.5274 12.792 23.4818 12.8021 23.4358C12.83 23.3214 12.8559 23.2082 12.88 23.0946C13.2391 21.3337 13.0597 19.5111 12.3635 17.845C12.2494 17.8732 12.1353 17.9014 12.0207 17.9313C12.708 19.5531 12.885 21.3313 12.5302 23.0479Z" fill="#BBBBBB"/>
<path d="M17.3532 23.9098C17.3337 24.0262 17.3109 24.1418 17.2864 24.2571C17.2597 24.3804 17.2313 24.5034 17.1996 24.6255C16.7021 26.5285 15.573 28.2264 13.9812 29.4649C12.3894 30.7035 10.4207 31.416 8.36963 31.4958C8.48863 31.6019 8.60591 31.7076 8.72574 31.8104C10.7899 31.6618 12.7526 30.8955 14.335 29.6202C15.9174 28.3449 17.039 26.6256 17.5404 24.7065C17.5722 24.5843 17.6023 24.4618 17.6268 24.3396C17.6535 24.2232 17.6763 24.1076 17.6974 23.9916C18.1078 21.6442 17.5694 19.2354 16.191 17.2532C16.056 17.2574 15.9215 17.267 15.7852 17.2761C17.1907 19.2084 17.7531 21.5879 17.3532 23.9098Z" fill="#BBBBBB"/>
<path d="M22.6974 50.2266L21.5981 49.157L22.9459 47.1878L25.2528 43.5186C25.1774 43.3605 25.154 43.1843 25.1857 43.0132C25.2174 42.8422 25.3028 42.6844 25.4304 42.5607C25.558 42.437 25.7219 42.3532 25.9004 42.3204C26.0789 42.2877 26.2637 42.3075 26.4302 42.3772C26.5966 42.447 26.7371 42.5634 26.8328 42.711C26.9286 42.8587 26.9751 43.0307 26.9664 43.2042C26.9576 43.3777 26.894 43.5445 26.7838 43.6827C26.6737 43.8209 26.5222 43.9239 26.3495 43.978L24.4454 47.8952L22.6974 50.2266Z" fill="#A0616A"/>
<path d="M21.4794 52.6682C21.3503 52.8592 21.1664 53.0106 20.9497 53.1044C20.733 53.1982 20.4925 53.2304 20.2572 53.197C20.0332 53.1718 19.8217 53.0846 19.6489 52.9461C19.476 52.8076 19.3492 52.6239 19.2841 52.4176C19.2361 52.2711 19.2221 52.1164 19.2431 51.9642C19.2641 51.8121 19.3196 51.6662 19.4057 51.5366C20.1411 50.3521 21.4973 48.7877 21.5109 48.7721L21.5325 48.7472L23.82 49.2208L21.4794 52.6682Z" fill="#2A2B2F"/>
<path d="M41.0486 9.97396L40.7796 10.0531L38.5107 3.01097C38.1624 1.93 37.379 1.02552 36.3328 0.496487C35.2866 -0.0325436 34.0633 -0.142782 32.9321 0.190023H32.9321L17.3184 4.78348C16.7583 4.94826 16.2376 5.21686 15.7861 5.57393C15.3346 5.93101 14.9611 6.36956 14.687 6.86456C14.4129 7.35955 14.2434 7.90129 14.1884 8.45885C14.1334 9.01641 14.1938 9.57887 14.3663 10.1141V10.1141L26.814 48.7478C27.1623 49.8287 27.9457 50.7332 28.9918 51.2623C30.038 51.7913 31.2613 51.9015 32.3925 51.5687H32.3926L48.0062 46.9753C49.1374 46.6425 50.084 45.8939 50.6376 44.8942C51.1912 43.8945 51.3066 42.7256 50.9583 41.6446V41.6446L42.3947 15.0658L42.6637 14.9867L41.0486 9.97396Z" fill="#3F3D56"/>
<path d="M33.446 1.19965L31.408 1.79925C31.5724 1.99125 31.685 2.21896 31.7356 2.4623C31.7863 2.70565 31.7736 2.95718 31.6986 3.19472C31.6236 3.43227 31.4886 3.64854 31.3055 3.82449C31.1224 4.00044 30.8969 4.13066 30.6487 4.20369L21.7038 6.83522C21.4557 6.90821 21.1925 6.92176 20.9376 6.87468C20.6826 6.8276 20.4437 6.72133 20.2419 6.56523C20.04 6.40914 19.8815 6.208 19.7801 5.97955C19.6788 5.7511 19.6378 5.50235 19.6608 5.2552L17.7572 5.81522C16.9124 6.06376 16.2055 6.6228 15.7921 7.36935C15.3786 8.11591 15.2925 8.98883 15.5526 9.79608L27.982 48.3731C28.2421 49.1803 28.8271 49.8558 29.6084 50.2509C30.3897 50.6459 31.3032 50.7282 32.148 50.4797H32.148L47.8369 45.8641C48.6817 45.6156 49.3885 45.0566 49.802 44.31C50.2154 43.5635 50.3016 42.6905 50.0415 41.8833L37.6121 3.3063C37.352 2.49904 36.7669 1.82358 35.9856 1.42851C35.2044 1.03344 34.2908 0.951115 33.446 1.19965Z" fill="white"/>
<path d="M96.6144 85.4239L59.9875 72.8431C59.1197 72.5439 58.4115 71.9281 58.0183 71.1307C57.6251 70.3332 57.579 69.4193 57.8901 68.5895L76.9837 17.8329C77.2968 17.0037 77.9413 16.327 78.7758 15.9513C79.6103 15.5756 80.5667 15.5315 81.4352 15.8288L118.062 28.4096C118.93 28.7087 119.638 29.3246 120.031 30.122C120.424 30.9194 120.471 31.8333 120.16 32.6632L101.066 83.4197C100.753 84.249 100.108 84.9257 99.2738 85.3014C98.4393 85.6771 97.4829 85.7212 96.6144 85.4239Z" fill="#3F3D56"/>
<path d="M97.4296 83.4497L60.6738 70.8246C60.4063 70.7324 60.188 70.5425 60.0668 70.2967C59.9456 70.0509 59.9314 69.7692 60.0272 69.5134L79.2474 18.4207C79.3439 18.1651 79.5425 17.9565 79.7998 17.8407C80.057 17.7249 80.3519 17.7113 80.6196 17.8029L117.375 30.428C117.643 30.5203 117.861 30.7101 117.982 30.9559C118.104 31.2017 118.118 31.4834 118.022 31.7393L98.8019 82.8319C98.7054 83.0875 98.5067 83.2961 98.2494 83.412C97.9922 83.5278 97.6974 83.5414 97.4296 83.4497Z" fill="white"/>
<path d="M99.2486 23.3124C99.4121 23.3124 99.5446 23.1858 99.5446 23.0296C99.5446 22.8733 99.4121 22.7467 99.2486 22.7467C99.0852 22.7467 98.9526 22.8733 98.9526 23.0296C98.9526 23.1858 99.0852 23.3124 99.2486 23.3124Z" fill="white"/>
<path d="M38.4072 30.7614C41.5289 27.7785 41.5289 22.9422 38.4072 19.9593C35.2856 16.9764 30.2244 16.9764 27.1027 19.9593C23.981 22.9422 23.981 27.7785 27.1027 30.7614C30.2244 33.7443 35.2856 33.7443 38.4072 30.7614Z" fill="#2A2B2F"/>
<path d="M33.592 29.0055L29.6355 26.4407L29.981 25.9544L33.2565 28.0778L35.6239 21.0011L36.2095 21.18L33.592 29.0055Z" fill="white"/>
<path d="M96.2123 56.8003C100.166 53.0222 100.166 46.8967 96.2123 43.1187C92.2585 39.3406 85.8481 39.3406 81.8943 43.1187C77.9405 46.8967 77.9405 53.0222 81.8943 56.8003C85.8481 60.5783 92.2585 60.5783 96.2123 56.8003Z" fill="#2A2B2F"/>
<path d="M86.6114 54.07L85.1575 48.453L85.9138 48.2745L87.1174 52.9249L95.6183 48.1749L96.0113 48.8171L86.6114 54.07Z" fill="white"/>
<path d="M23.3345 78.8825H24.7013L25.3515 73.845L23.3342 73.8451L23.3345 78.8825Z" fill="#A0616A"/>
<path d="M22.9858 78.4562L25.6775 78.4561H25.6776C26.1325 78.4561 26.5688 78.6288 26.8905 78.9362C27.2121 79.2435 27.3929 79.6604 27.3929 80.0951V80.1484L22.9859 80.1486L22.9858 78.4562Z" fill="#2F2E41"/>
<path d="M12.6924 78.3173L14.0438 78.5125L15.4748 73.6245L13.7032 73.3364L12.6924 78.3173Z" fill="#A0616A"/>
<path d="M12.4143 77.8458L15.0757 78.2302L15.0759 78.2302C15.5257 78.2952 15.93 78.5283 16.2 78.8782C16.47 79.2281 16.5835 79.6661 16.5155 80.0959L16.5072 80.1486L12.1497 79.5192L12.4143 77.8458Z" fill="#2F2E41"/>
<path d="M20.6085 55.1346L23.7868 54.4731L25.5695 59.3425L25.6252 78.1446L23.0308 78.1291L21.9463 62.9112L15.0344 76.9728L12.2473 76.6533L18.3231 61.5796C18.3231 61.5796 17.9887 58.9164 19.0477 57.5848L18.8248 56.1999L20.6085 55.1346Z" fill="#2F2E41"/>
<path d="M17.6249 51.5545C17.5527 51.3471 17.545 51.1242 17.6028 50.9127C17.6607 50.7012 17.7815 50.5104 17.9507 50.3633L18.6225 49.7797L20.5164 49.4748L21.7007 49.2692L24.5087 55.9676L18.9812 56.569C18.5755 56.4853 18.4135 56.2733 18.6495 55.8516L17.6249 51.5545Z" fill="#2A2B2F"/>
<path d="M24.3173 50.4453L24.1592 48.9539L26.4995 48.2221L30.7006 46.7365C30.7452 46.5681 30.8423 46.4166 30.9789 46.3021C31.1156 46.1875 31.2854 46.1153 31.4659 46.095C31.6465 46.0747 31.8292 46.1072 31.99 46.1883C32.1507 46.2694 32.2819 46.3952 32.3663 46.5491C32.4506 46.703 32.484 46.8777 32.4621 47.0502C32.4402 47.2226 32.3641 47.3847 32.2437 47.5148C32.1234 47.645 31.9645 47.7372 31.7881 47.7793C31.6118 47.8213 31.4262 47.8112 31.2559 47.7502L27.2069 49.67L24.3173 50.4453Z" fill="#A0616A"/>
<path d="M21.7695 51.6234C21.5439 51.6954 21.3013 51.7037 21.0708 51.6474C20.8403 51.5911 20.6316 51.4726 20.4698 51.306C20.3115 51.1524 20.2036 50.958 20.1593 50.7467C20.115 50.5354 20.1362 50.3163 20.2203 50.1163C20.2786 49.9733 20.369 49.8442 20.4849 49.738C20.6008 49.6318 20.7396 49.5511 20.8916 49.5014C22.2405 49.0162 24.3226 48.6056 24.3434 48.6015L24.3765 48.595L25.8519 50.3311L21.7695 51.6234Z" fill="#2A2B2F"/>
<path d="M19.6852 48.8336C20.8334 48.8336 21.7642 47.9442 21.7642 46.847C21.7642 45.7498 20.8334 44.8604 19.6852 44.8604C18.537 44.8604 17.6062 45.7498 17.6062 46.847C17.6062 47.9442 18.537 48.8336 19.6852 48.8336Z" fill="#A0616A"/>
<path d="M18.0018 49.6772C17.6794 49.6772 17.3573 49.6584 17.0372 49.621L16.9934 49.6159L16.6585 47.8787C16.5164 47.1422 16.6748 46.3818 17.101 45.7534C17.5273 45.125 18.1891 44.6763 18.9506 44.4995C19.0014 44.4872 19.0548 44.4885 19.1048 44.5033C19.1549 44.5181 19.1997 44.5458 19.2344 44.5834L19.3143 44.5568C19.6201 44.4549 19.9438 44.4116 20.2672 44.4293C20.5905 44.4469 20.907 44.5253 21.1986 44.6599C21.4902 44.7944 21.7513 44.9826 21.9668 45.2135C22.1823 45.4445 22.3481 45.7138 22.4547 46.006L22.4745 46.0603L21.9416 46.2378C21.7755 46.2932 21.6244 46.3832 21.4993 46.5013C21.3742 46.6195 21.2783 46.7628 21.2184 46.9208C21.1586 47.0789 21.1364 47.2477 21.1534 47.4149C21.1704 47.5822 21.2262 47.7438 21.3168 47.8878L21.8617 48.7547L21.8037 48.7825C20.6275 49.362 19.325 49.6685 18.0018 49.6772Z" fill="#2F2E41"/>
<path d="M45.9529 80.3367H0.120296C0.0883912 80.3367 0.0577935 80.3246 0.0352337 80.303C0.0126739 80.2815 0 80.2522 0 80.2218C0 80.1913 0.0126739 80.162 0.0352337 80.1405C0.0577935 80.1189 0.0883912 80.1068 0.120296 80.1068H45.9529C45.9848 80.1068 46.0154 80.1189 46.038 80.1405C46.0605 80.162 46.0732 80.1913 46.0732 80.2218C46.0732 80.2522 46.0605 80.2815 46.038 80.303C46.0154 80.3246 45.9848 80.3367 45.9529 80.3367Z" fill="#CACACA"/>
<path d="M135.603 85.9693H81.3419C81.3041 85.9693 81.2679 85.9572 81.2412 85.9356C81.2145 85.914 81.1995 85.8848 81.1995 85.8543C81.1995 85.8238 81.2145 85.7946 81.2412 85.773C81.2679 85.7515 81.3041 85.7394 81.3419 85.7394H135.603C135.64 85.7394 135.677 85.7515 135.703 85.773C135.73 85.7946 135.745 85.8238 135.745 85.8543C135.745 85.8848 135.73 85.914 135.703 85.9356C135.677 85.9572 135.64 85.9693 135.603 85.9693Z" fill="#CACACA"/>
<path d="M102.26 65.9072C102.361 65.8258 102.443 65.7242 102.499 65.6094C102.555 65.4946 102.584 65.3695 102.584 65.2428C102.584 65.1162 102.555 64.991 102.499 64.8763C102.443 64.7615 102.361 64.6599 102.259 64.5786L101.585 53.2421L99.6619 53.6576L100.933 64.7292C100.802 64.9014 100.741 65.1138 100.762 65.3261C100.783 65.5384 100.885 65.7358 101.049 65.881C101.212 66.0262 101.426 66.1091 101.649 66.1139C101.872 66.1187 102.089 66.0452 102.26 65.9072H102.26Z" fill="#9F616A"/>
<path d="M110.07 67.3834C109.965 67.3056 109.879 67.2069 109.819 67.0941C109.759 66.9813 109.725 66.8573 109.72 66.7307C109.715 66.6041 109.74 66.4781 109.791 66.3614C109.843 66.2448 109.921 66.1404 110.019 66.0556L110.264 54.7032L112.201 55.052L111.35 66.1603C111.488 66.3279 111.557 66.538 111.544 66.7509C111.531 66.9638 111.436 67.1646 111.278 67.3154C111.121 67.4661 110.91 67.5563 110.687 67.5689C110.465 67.5814 110.245 67.5154 110.07 67.3834Z" fill="#9F616A"/>
<path d="M111.095 84.2553L112.604 84.2552L113.034 80.8914L111.095 80.8915L111.095 84.2553Z" fill="#9F616A"/>
<path d="M110.71 83.7844L113.682 83.7843H113.682C114.184 83.7843 114.666 83.975 115.021 84.3144C115.376 84.6538 115.576 85.114 115.576 85.594V85.6528L110.71 85.653L110.71 83.7844Z" fill="#2F2E41"/>
<path d="M101.678 84.2553L103.187 84.2552L103.618 78.6934H101.678L101.678 84.2553Z" fill="#9F616A"/>
<path d="M101.294 83.7844L104.266 83.7843H104.266C104.768 83.7843 105.25 83.975 105.605 84.3144C105.96 84.6538 106.159 85.114 106.16 85.594V85.6528L101.294 85.653L101.294 83.7844Z" fill="#2F2E41"/>
<path d="M107.757 48.3512C109.121 48.3512 110.226 47.295 110.226 45.9921C110.226 44.6892 109.121 43.6331 107.757 43.6331C106.394 43.6331 105.289 44.6892 105.289 45.9921C105.289 47.295 106.394 48.3512 107.757 48.3512Z" fill="#9F616A"/>
<path d="M110.895 51.4358C110.895 51.4358 111.992 51.5232 112.084 52.0474C112.175 52.5716 112.084 54.1443 112.084 54.1443C112.084 54.1443 112.815 56.2413 112.084 56.7655C111.352 57.2897 109.432 57.3771 109.432 57.3771L110.895 51.4358Z" fill="#E4E4E4"/>
<path d="M101.569 63.3186L100.563 64.8913C100.563 64.8913 100.928 71.7938 101.02 71.9685C101.093 72.0711 101.125 72.1949 101.111 72.318V73.2791L101.386 81.6669C101.386 81.6669 100.654 82.0164 101.569 82.2786C102.483 82.5407 103.672 82.628 103.854 81.7543C104.037 80.8806 104.046 73.6016 104.037 73.3665L104.129 73.017L105.592 67.862L108.975 75.0266L110.987 83.0649C110.987 83.0649 114.031 83.4009 113.482 82.265C112.934 81.1292 111.627 72.6675 111.627 72.6675C111.627 72.6675 111.352 71.7938 111.352 71.619C111.352 71.4443 111.261 71.3569 111.261 71.1822C111.261 71.0074 111.169 70.4832 111.169 70.4832L110.529 64.9787L101.569 63.3186Z" fill="#2F2E41"/>
<path d="M102.483 49.9505C102.483 49.9505 101.386 49.8632 101.111 50.7369C100.837 51.6106 98.5511 54.9308 99.0082 55.2803C99.4654 55.6298 102.94 56.853 103.031 56.7656C103.123 56.6783 102.483 49.9505 102.483 49.9505Z" fill="#E4E4E4"/>
<path d="M110.632 44.4878C110.529 44.1193 110.383 43.7509 110.085 43.4963C109.784 43.2403 109.397 43.0947 108.994 43.0856C108.534 42.8308 108.017 42.683 107.486 42.6542C106.956 42.6255 106.425 42.7165 105.938 42.92C105.885 42.8182 105.8 42.7352 105.694 42.6828C105.665 42.9255 105.636 43.1681 105.606 43.4107C105.493 43.3292 105.379 43.2476 105.266 43.1661C105.26 43.3096 105.255 43.4532 105.249 43.5968C105.145 43.5114 105.041 43.426 104.937 43.3406C104.915 43.8491 105.358 44.2894 105.859 44.4627C106.36 44.6361 106.909 44.6041 107.441 44.5801C107.703 44.5682 108.003 44.5725 108.18 44.7581C108.366 44.9526 108.331 45.2507 108.335 45.5139C108.342 45.8842 108.739 45.7028 108.939 46.0203C109.025 46.1255 109.078 46.2514 109.094 46.384C109.075 46.5043 109.029 46.6193 108.96 46.7213C108.813 47.0111 108.521 47.9129 108.66 48.2061C108.918 48.0681 109.176 47.9302 109.434 47.7922C109.434 47.7922 111.134 46.2718 110.632 44.4878Z" fill="#2F2E41"/>
<path d="M110.164 56.5034C110.164 56.5034 111.992 52.0474 111.901 51.6979C111.81 51.3484 109.528 49.9144 109.528 49.9144C109.441 49.9041 109.359 49.8941 109.276 49.8841C109.288 49.8533 109.296 49.8212 109.301 49.7884L109.34 49.4463C109.352 49.3402 109.32 49.2337 109.25 49.1504C109.18 49.0671 109.078 49.0138 108.967 49.0022L106.068 48.6984C105.957 48.6868 105.845 48.7178 105.758 48.7847C105.671 48.8515 105.615 48.9487 105.603 49.0549L105.569 49.3507C105.416 49.3145 105.409 49.3002 105.409 49.3002C105.409 49.3002 102.849 49.6884 102.209 49.8631C101.569 50.0379 102.117 56.6782 102.117 56.6782C102.117 56.6782 101.66 62.7943 101.386 62.969C101.111 63.1438 101.386 63.0564 101.111 63.7554C101.075 63.8476 101.58 63.3328 101.797 63.4496C103.224 64.2182 109.009 66.0155 110.438 65.9397C110.895 61.3844 109.981 59.911 109.981 59.911L110.164 56.5034Z" fill="#E4E4E4"/>
<path d="M136.262 76.831C135.742 80.0853 133.396 82.6051 130.899 84.8072C130.55 85.1147 130.2 85.4162 129.85 85.7118C129.848 85.7132 129.845 85.716 129.843 85.7175C129.826 85.7316 129.809 85.7458 129.793 85.7599C129.721 85.8208 129.649 85.8817 129.577 85.9419L129.622 85.9562L129.762 86C129.714 85.9865 129.667 85.9738 129.618 85.9603C129.604 85.9562 129.589 85.9527 129.575 85.9486C127.919 85.4942 126.23 84.9956 124.876 83.9312C123.472 82.8256 122.505 80.9409 122.989 79.2044C123.053 78.9769 123.141 78.7574 123.253 78.5498C123.299 78.4629 123.349 78.3789 123.402 78.2961C123.722 77.7854 124.17 77.3705 124.7 77.0941C125.23 76.8177 125.824 76.6897 126.419 76.7233C127.014 76.757 127.589 76.951 128.086 77.2854C128.583 77.6199 128.983 78.0827 129.245 78.6263C129.221 76.7129 127.501 75.3177 125.887 74.3302C124.273 73.3434 122.445 72.2772 121.938 70.4335C121.655 69.4078 121.893 68.3512 122.448 67.4586C122.466 67.4314 122.483 67.4043 122.501 67.3777C123.182 66.3339 124.226 65.5896 125.424 65.2936C127.66 64.7784 130.002 65.7273 131.836 67.1255C134.787 69.3749 136.854 73.1309 136.262 76.831Z" fill="#3C3950"/>
<path d="M131.691 73.5064C132.252 74.1266 132.71 74.8183 133.053 75.5595C133.347 76.2234 133.531 76.9237 133.599 77.6373C133.747 79.1033 133.443 80.585 132.836 81.9417C132.364 82.9716 131.752 83.9429 131.014 84.8325C130.635 85.1335 130.254 85.4286 129.873 85.7179C129.871 85.7193 129.868 85.722 129.866 85.7235C129.847 85.7373 129.829 85.7512 129.812 85.765C129.733 85.8246 129.655 85.8843 129.577 85.9432L129.625 85.9572L129.778 86C129.726 85.9868 129.674 85.9743 129.622 85.9612C129.606 85.9571 129.59 85.9538 129.574 85.9497C129.577 84.7789 129.272 83.6246 128.686 82.5836C128.1 81.5427 127.249 80.6453 126.206 79.9667C125.162 79.3002 123.96 78.8688 122.699 78.7077C122.748 78.6226 122.803 78.5404 122.861 78.4593C123.349 78.5285 123.829 78.637 124.296 78.7836C125.965 79.3032 127.407 80.3004 128.409 81.6275C129.309 82.8336 129.814 84.2495 129.865 85.7089C129.928 85.6427 129.991 85.5752 130.052 85.5085C131.211 84.2527 132.202 82.8484 132.793 81.2885C133.31 79.9658 133.463 78.5471 133.238 77.1576C132.975 75.6445 132.127 74.3093 131.007 73.1889C129.807 71.9899 128.367 70.9707 126.859 70.1163C125.315 69.2394 123.659 68.5385 121.928 68.0293C121.889 68.0176 121.857 67.9926 121.837 67.9595C121.818 67.9264 121.813 67.8877 121.824 67.8514C121.831 67.8192 121.851 67.7908 121.881 67.7723C121.896 67.7641 121.914 67.7591 121.931 67.7579C121.949 67.7566 121.967 67.7591 121.984 67.765C122.197 67.828 122.41 67.8923 122.621 67.9605C124.381 68.5289 126.057 69.2949 127.611 70.2411C129.111 71.1524 130.551 72.2236 131.691 73.5064Z" fill="white"/>
</svg>
