<svg width="140" height="86" viewBox="0 0 140 86" fill="none" xmlns="http://www.w3.org/2000/svg">
<g clip-path="url(#clip0_175_4)">
<path d="M6.85792 79.2834C6.91651 81.4657 7.28286 83.6288 7.94616 85.7091C7.96086 85.7574 7.97719 85.805 7.99307 85.8533H12.0538C12.0495 85.81 12.0451 85.7617 12.0409 85.7091C11.7701 82.6029 13.3169 63.9225 15.1834 60.6895C15.0198 60.9517 6.54307 69.4133 6.85792 79.2834Z" fill="#2A2B2F"/>
<path d="M7.16269 85.7092C7.19666 85.7575 7.23195 85.8057 7.26813 85.8533H10.3146C10.2915 85.8122 10.2647 85.7639 10.2337 85.7092C9.73048 84.8028 8.24092 82.0928 6.85828 79.2834C5.37298 76.2643 4.00916 73.1307 4.12401 71.9966C4.08842 72.2522 3.06019 80.0501 7.16269 85.7092Z" fill="#2A2B2F"/>
<path d="M95.7781 17.6956C95.8943 17.9824 96.0722 18.2404 96.2991 18.4513C96.526 18.6621 96.7965 18.8208 97.0915 18.916C97.3865 19.0113 97.6989 19.0408 98.0066 19.0026C98.3143 18.9643 98.6098 18.8592 98.8724 18.6947L104.752 23.4011L105.116 19.5094L99.4768 15.6367C99.1705 15.2148 98.7198 14.9197 98.2101 14.8072C97.7003 14.6948 97.167 14.7729 96.7111 15.0267C96.2552 15.2804 95.9084 15.6923 95.7364 16.1842C95.5645 16.6761 95.5793 17.2139 95.7781 17.6956Z" fill="#9F616A"/>
<path d="M104.883 19.1439L102.689 17.5967L100.2 20.4665L103.095 22.1789L104.883 19.1439Z" fill="#2A2B2F"/>
<path d="M104.403 18.0947L111.798 20.9343L118.917 16.2824C119.652 15.8016 120.538 15.6044 121.409 15.7277C122.28 15.851 123.076 16.2864 123.648 16.9524C124.221 17.6185 124.531 18.4698 124.521 19.3473C124.51 20.2248 124.18 21.0687 123.592 21.7212L123.529 21.7918L112.58 27.6501L100.62 22.1976L104.403 18.0947Z" fill="#3F3D56"/>
<path d="M102.318 85.5598H25.2588L28.0529 31.1127H40.1117L51.2314 38.8908H105.112L102.318 85.5598Z" fill="#E5E5E5"/>
<path d="M83.4542 68.9578L38.9152 50.653C38.7595 50.5888 38.6357 50.4655 38.5709 50.3103C38.5061 50.1551 38.5057 49.9806 38.5696 49.8251L58.7511 0.920831C58.8154 0.765441 58.9389 0.641864 59.0944 0.577206C59.2499 0.512549 59.4248 0.512092 59.5807 0.575939L104.12 18.8808C104.275 18.945 104.399 19.0682 104.464 19.2234C104.529 19.3786 104.529 19.5531 104.465 19.7086L84.2838 68.6129C84.2194 68.7683 84.096 68.8919 83.9404 68.9565C83.7849 69.0212 83.61 69.0216 83.4542 68.9578Z" fill="white"/>
<path d="M83.4542 68.9578L38.9152 50.653C38.7595 50.5888 38.6357 50.4655 38.5709 50.3103C38.5061 50.1551 38.5057 49.9806 38.5696 49.8251L58.7511 0.920831C58.8154 0.765441 58.9389 0.641864 59.0944 0.577206C59.2499 0.512549 59.4248 0.512092 59.5807 0.575939L104.12 18.8808C104.275 18.945 104.399 19.0682 104.464 19.2234C104.529 19.3786 104.529 19.5531 104.465 19.7086L84.2838 68.6129C84.2194 68.7683 84.096 68.8919 83.9404 68.9565C83.7849 69.0212 83.61 69.0216 83.4542 68.9578ZM59.4839 0.810492C59.3904 0.772179 59.2854 0.772449 59.1921 0.811244C59.0988 0.85004 59.0247 0.92419 58.9861 1.01743L38.8047 49.9217C38.7663 50.015 38.7665 50.1197 38.8054 50.2128C38.8443 50.306 38.9186 50.3799 39.012 50.4184L83.551 68.7232C83.6445 68.7615 83.7494 68.7613 83.8427 68.7225C83.936 68.6837 84.0101 68.6095 84.0487 68.5163L104.23 19.612C104.269 19.5187 104.268 19.414 104.229 19.3209C104.191 19.2278 104.116 19.1538 104.023 19.1153L59.4839 0.810492Z" fill="#3F3D56"/>
<path d="M72.0634 24.7824L61.0168 20.2425C60.8611 20.1783 60.7372 20.055 60.6725 19.8998C60.6077 19.7446 60.6072 19.5701 60.6712 19.4146L65.2205 8.39062C65.2848 8.23523 65.4083 8.11165 65.5638 8.04699C65.7193 7.98234 65.8942 7.98188 66.0501 8.04573L77.0967 12.5857C77.2524 12.6499 77.3762 12.7731 77.441 12.9283C77.5058 13.0835 77.5063 13.258 77.4423 13.4136L72.893 24.4376C72.8286 24.5929 72.7052 24.7165 72.5496 24.7812C72.3941 24.8458 72.2193 24.8463 72.0634 24.7824ZM65.9533 8.28028C65.8598 8.24196 65.7548 8.24224 65.6615 8.28103C65.5682 8.31983 65.4941 8.39398 65.4555 8.48722L60.9062 19.5112C60.8678 19.6045 60.8681 19.7092 60.907 19.8023C60.9459 19.8955 61.0202 19.9694 61.1136 20.0079L72.1602 24.5479C72.2537 24.5862 72.3586 24.5859 72.4519 24.5471C72.5453 24.5083 72.6193 24.4342 72.6579 24.341L77.2072 13.317C77.2456 13.2237 77.2454 13.119 77.2065 13.0258C77.1676 12.9327 77.0933 12.8588 76.9999 12.8203L65.9533 8.28028Z" fill="#F2F2F2"/>
<path d="M68.3339 24.8271L57.2873 20.2871C57.1471 20.2293 57.0357 20.1184 56.9774 19.9787C56.9191 19.839 56.9187 19.682 56.9762 19.542L61.5255 8.51801C61.5834 8.37815 61.6946 8.26693 61.8345 8.20874C61.9745 8.15054 62.1319 8.15014 62.2722 8.2076L73.3188 12.7476C73.4589 12.8054 73.5704 12.9163 73.6287 13.0559C73.687 13.1956 73.6874 13.3527 73.6298 13.4927L69.0805 24.5167C69.0226 24.6565 68.9115 24.7677 68.7715 24.8259C68.6315 24.8841 68.4742 24.8845 68.3339 24.8271Z" fill="#2A2B2F"/>
<path d="M89.6109 39.8814L55.0609 25.6819C54.9915 25.6533 54.9283 25.6114 54.8751 25.5585C54.8219 25.5056 54.7797 25.4428 54.7508 25.3736C54.7219 25.3044 54.7069 25.2302 54.7068 25.1553C54.7066 25.0803 54.7213 25.0061 54.7499 24.9368C54.7785 24.8675 54.8205 24.8045 54.8735 24.7514C54.9265 24.6983 54.9894 24.6561 55.0588 24.6273C55.1281 24.5984 55.2024 24.5835 55.2775 24.5834C55.3526 24.5832 55.427 24.5978 55.4965 24.6264L90.0465 38.8259C90.1868 38.8835 90.2983 38.9944 90.3567 39.1341C90.415 39.2739 90.4153 39.431 90.3576 39.571C90.2998 39.7109 90.1887 39.8223 90.0487 39.8805C89.9086 39.9387 89.7512 39.939 89.6109 39.8814V39.8814Z" fill="#CCCCCC"/>
<path d="M79.767 40.0877L53.5607 29.3174C53.4912 29.2888 53.4281 29.2469 53.3749 29.194C53.3217 29.1411 53.2794 29.0783 53.2505 29.0091C53.2216 28.9399 53.2067 28.8657 53.2065 28.7908C53.2064 28.7158 53.221 28.6416 53.2496 28.5723C53.2782 28.503 53.3202 28.44 53.3732 28.3869C53.4262 28.3338 53.4892 28.2916 53.5585 28.2628C53.6278 28.2339 53.7022 28.219 53.7773 28.2189C53.8524 28.2187 53.9268 28.2333 53.9962 28.2619L80.2026 39.0323C80.3428 39.0899 80.4544 39.2008 80.5127 39.3405C80.571 39.4802 80.5714 39.6374 80.5136 39.7773C80.4558 39.9173 80.3447 40.0286 80.2047 40.0868C80.0647 40.1451 79.9072 40.1454 79.767 40.0877Z" fill="#CCCCCC"/>
<path d="M95.0107 26.4636L79.7335 20.1849C79.6641 20.1564 79.6009 20.1145 79.5477 20.0616C79.4945 20.0087 79.4523 19.9458 79.4234 19.8767C79.3945 19.8075 79.3795 19.7333 79.3794 19.6583C79.3792 19.5834 79.3939 19.5091 79.4225 19.4398C79.4511 19.3705 79.4931 19.3075 79.5461 19.2544C79.5991 19.2013 79.662 19.1591 79.7314 19.1303C79.8007 19.1015 79.875 19.0866 79.9501 19.0864C80.0253 19.0863 80.0996 19.1009 80.1691 19.1294L95.4463 25.4081C95.5865 25.4658 95.6981 25.5767 95.7564 25.7164C95.8148 25.8561 95.8151 26.0132 95.7573 26.1532C95.6996 26.2932 95.5885 26.4045 95.4484 26.4627C95.3084 26.5209 95.151 26.5212 95.0107 26.4636Z" fill="#CCCCCC"/>
<path d="M89.6978 28.5322L78.2333 23.8204C78.093 23.7628 77.9815 23.6519 77.9231 23.5122C77.8648 23.3724 77.8645 23.2153 77.9222 23.0753C77.98 22.9354 78.0911 22.824 78.2311 22.7658C78.3711 22.7076 78.5286 22.7073 78.6689 22.7649L90.1334 27.4767C90.2737 27.5343 90.3852 27.6452 90.4436 27.7849C90.5019 27.9247 90.5022 28.0818 90.4445 28.2218C90.3867 28.3617 90.2756 28.4731 90.1356 28.5313C89.9956 28.5895 89.8381 28.5898 89.6978 28.5322V28.5322Z" fill="#CCCCCC"/>
<path d="M86.6104 47.1525L52.0604 32.953C51.991 32.9244 51.9278 32.8825 51.8746 32.8296C51.8214 32.7767 51.7792 32.7139 51.7503 32.6447C51.7214 32.5755 51.7065 32.5013 51.7063 32.4264C51.7061 32.3514 51.7208 32.2772 51.7494 32.2079C51.778 32.1386 51.82 32.0756 51.873 32.0225C51.926 31.9694 51.9889 31.9272 52.0583 31.8984C52.1276 31.8696 52.2019 31.8546 52.277 31.8545C52.3522 31.8543 52.4266 31.869 52.496 31.8975L87.046 46.097C87.1863 46.1547 87.2978 46.2655 87.3562 46.4053C87.4145 46.545 87.4148 46.7021 87.3571 46.8421C87.2993 46.9821 87.1882 47.0934 87.0482 47.1516C86.9082 47.2098 86.7507 47.2101 86.6104 47.1525V47.1525Z" fill="#CCCCCC"/>
<path d="M76.7665 47.3589L50.5602 36.5885C50.4907 36.5599 50.4276 36.518 50.3744 36.4651C50.3212 36.4122 50.2789 36.3494 50.25 36.2802C50.2212 36.211 50.2062 36.1368 50.2061 36.0619C50.2059 35.9869 50.2205 35.9127 50.2491 35.8434C50.2777 35.7741 50.3197 35.7111 50.3727 35.658C50.4257 35.6049 50.4887 35.5627 50.558 35.5339C50.6274 35.5051 50.7017 35.4901 50.7768 35.49C50.8519 35.4898 50.9263 35.5044 50.9958 35.533L77.202 46.3034C77.2715 46.3319 77.3346 46.3738 77.3878 46.4267C77.441 46.4796 77.4833 46.5425 77.5122 46.6116C77.5411 46.6808 77.556 46.755 77.5562 46.83C77.5563 46.9049 77.5417 46.9792 77.5131 47.0485C77.4845 47.1178 77.4425 47.1808 77.3895 47.2339C77.3365 47.287 77.2735 47.3292 77.2042 47.358C77.1349 47.3868 77.0605 47.4017 76.9854 47.4019C76.9103 47.402 76.8359 47.3874 76.7665 47.3589Z" fill="#CCCCCC"/>
<path d="M83.6099 54.4236L49.0599 40.2241C48.9197 40.1665 48.8081 40.0556 48.7498 39.9158C48.6915 39.7761 48.6911 39.619 48.7489 39.479C48.8067 39.339 48.9178 39.2277 49.0578 39.1695C49.1978 39.1113 49.3553 39.111 49.4955 39.1686L84.0455 53.3681C84.1857 53.4258 84.2973 53.5366 84.3556 53.6764C84.414 53.8161 84.4143 53.9732 84.3565 54.1132C84.2988 54.2532 84.1877 54.3645 84.0476 54.4227C83.9076 54.4809 83.7502 54.4812 83.6099 54.4236Z" fill="#CCCCCC"/>
<path d="M82.1095 58.0592L47.5594 43.8597C47.4192 43.8021 47.3076 43.6912 47.2493 43.5515C47.191 43.4117 47.1907 43.2546 47.2484 43.1146C47.3062 42.9747 47.4173 42.8633 47.5573 42.8051C47.6973 42.7469 47.8548 42.7466 47.995 42.8042L82.545 57.0038C82.6145 57.0323 82.6776 57.0742 82.7308 57.1271C82.784 57.18 82.8263 57.2428 82.8552 57.312C82.8841 57.3812 82.899 57.4554 82.8992 57.5303C82.8993 57.6053 82.8847 57.6795 82.8561 57.7488C82.8275 57.8181 82.7855 57.8811 82.7325 57.9343C82.6795 57.9874 82.6165 58.0295 82.5472 58.0583C82.4779 58.0872 82.4035 58.1021 82.3284 58.1022C82.2533 58.1024 82.1789 58.0878 82.1095 58.0592Z" fill="#CCCCCC"/>
<path d="M65.2544 57.7892C65.9459 57.8257 66.6392 57.8046 67.3271 57.7261C67.9466 57.6538 68.5919 57.5543 69.1349 57.2293C69.3698 57.0956 69.5697 56.9085 69.7185 56.6832C69.8672 56.4579 69.9606 56.2007 69.991 55.9326C70.015 55.6776 69.957 55.4216 69.8255 55.2016C69.6939 54.9817 69.4957 54.8092 69.2594 54.7091C69.0196 54.6084 68.757 54.5742 68.4994 54.6102C68.2418 54.6463 67.9987 54.7511 67.796 54.9138C67.5793 55.1015 67.408 55.3356 67.2947 55.5987C67.1814 55.8617 67.129 56.1469 67.1416 56.433C67.1701 57.6077 68.1015 58.7678 69.1356 59.2564C70.3005 59.8068 71.8911 59.3391 72.1895 57.9837C72.2515 57.7019 71.8668 57.6039 71.7059 57.785C71.4864 58.0266 71.3675 58.3428 71.3736 58.6689C71.3797 58.995 71.5104 59.3065 71.7389 59.5397C71.9674 59.7729 72.2765 59.9102 72.6031 59.9237C72.9296 59.9371 73.249 59.8256 73.496 59.6119L73.063 59.434C73.1888 59.9602 73.4513 60.444 73.824 60.8369C74.1967 61.2297 74.6665 61.5177 75.1861 61.6718C75.4425 61.7485 75.7084 61.7889 75.9761 61.7919C76.3014 61.7928 76.6356 61.9558 76.9466 62.0569L79.1884 62.7858C79.5182 62.893 79.7274 62.3935 79.395 62.2854L77.3646 61.6253C77.0263 61.5153 76.6888 61.4022 76.3495 61.2952C76.1069 61.2187 75.8413 61.2601 75.5883 61.2151C75.1147 61.1257 74.6764 60.9037 74.3244 60.5751C73.9724 60.2466 73.7212 59.8249 73.6002 59.3593C73.5928 59.313 73.5736 59.2694 73.5445 59.2326C73.5153 59.1958 73.4772 59.1671 73.4337 59.1492C73.3902 59.1313 73.3429 59.1249 73.2962 59.1306C73.2496 59.1362 73.2052 59.1537 73.1672 59.1814C73.0254 59.3161 72.836 59.3894 72.6402 59.3854C72.4444 59.3814 72.2582 59.3004 72.122 59.16C71.9858 59.0196 71.9107 58.8312 71.9131 58.6358C71.9155 58.4404 71.9951 58.2539 72.1346 58.1168L71.6511 57.9181C71.4586 58.7924 70.3899 59.1205 69.6197 58.8677C68.7583 58.5849 68.0179 57.7622 67.761 56.9004C67.6923 56.6933 67.6671 56.4743 67.687 56.2571C67.7069 56.0399 67.7715 55.8291 67.8767 55.6379C67.9704 55.4635 68.1167 55.3229 68.2948 55.2359C68.4729 55.1488 68.6738 55.1197 68.8694 55.1527C69.044 55.1773 69.2022 55.2687 69.3106 55.4075C69.419 55.5463 69.4691 55.7218 69.4503 55.8968C69.4216 56.0937 69.3448 56.2805 69.2267 56.4408C69.1086 56.6011 68.9529 56.73 68.7731 56.8161C68.2883 57.0757 67.7078 57.1404 67.1693 57.1994C66.5554 57.266 65.9371 57.2836 65.3203 57.2519C64.9741 57.2344 64.9046 57.7716 65.2545 57.7892L65.2544 57.7892Z" fill="#2A2B2F"/>
<path d="M102.318 42.5598V85.5598H25.2588V34.7816H37.3176L48.4367 42.5598H102.318Z" fill="white"/>
<path d="M60.1877 77.488H31.212C30.5231 77.488 29.9646 78.0465 29.9646 78.7355C29.9646 79.4244 30.5231 79.9829 31.212 79.9829H60.1877C60.8767 79.9829 61.4352 79.4244 61.4352 78.7355C61.4352 78.0465 60.8767 77.488 60.1877 77.488Z" fill="#2A2B2F"/>
<path d="M44.4524 72.645H31.2121C30.5231 72.645 29.9646 73.2035 29.9646 73.8925C29.9646 74.5814 30.5231 75.1399 31.2121 75.1399H44.4524C45.1414 75.1399 45.6999 74.5814 45.6999 73.8925C45.6999 73.2035 45.1414 72.645 44.4524 72.645Z" fill="#2A2B2F"/>
<path d="M102.465 85.7064H25.1118V34.6348H37.3641L48.4838 42.4129H102.465V85.7064ZM25.4059 85.4129H102.171V42.7064H48.391L37.2713 34.9283H25.4059V85.4129Z" fill="#3F3D56"/>
<path d="M133.698 80.5165L131.09 81.4464L126.255 71.8522L130.104 70.4797L133.698 80.5165Z" fill="#9F616A"/>
<path d="M126.859 85.8001L126.82 85.694C126.511 84.8278 126.559 83.8747 126.954 83.0436C127.348 82.2126 128.056 81.5715 128.923 81.2611L134.058 79.4297L135.266 82.8017L126.859 85.8001Z" fill="#202020"/>
<path d="M116.742 83.09H113.973L112.656 72.4316L116.743 72.4318L116.742 83.09Z" fill="#9F616A"/>
<path d="M117.449 85.7687L108.52 85.7684V85.6557C108.52 85.2003 108.61 84.7493 108.785 84.3285C108.959 83.9078 109.215 83.5255 109.538 83.2035C109.861 82.8814 110.244 82.626 110.666 82.4517C111.087 82.2774 111.539 82.1877 111.995 82.1877H111.996L117.449 82.188L117.449 85.7687Z" fill="#202020"/>
<path d="M123.053 14.9967L121.848 12.6221C121.848 12.6221 117.362 13.7437 116.955 16.3384L123.053 14.9967Z" fill="#2A2B2F"/>
<path d="M128.022 42.1486L124.747 60.386L133.442 75.7323L128.248 77.7608L119.439 62.8848L118.31 58.8277L117.632 80.0147L112.947 79.8728L110.799 60.0892L114.244 41.6979L128.022 42.1486Z" fill="#202020"/>
<path d="M127.344 33.9092L127.231 23.2147C127.231 18.6823 124.241 15.3416 123.827 15.0326C123.632 14.4116 123.282 13.9824 122.788 13.7578C121.791 13.3072 120.573 13.8479 120.521 13.8723L116.865 15.24L116.848 15.2901C116.809 15.4045 113.121 27.4839 112.195 30.5155C112.063 30.9505 111.987 31.1994 111.987 31.1994C111.987 31.1994 112.001 31.9005 112.027 32.9907C112.109 36.7391 112.302 45.0886 112.38 45.4391C112.38 45.4391 119.132 46.4606 121.806 46.4606C126.616 46.4606 129.671 45.5421 129.739 45.5264L129.85 45.5035L127.344 33.9092Z" fill="#3F3D56"/>
<path d="M120.479 11.2699C122.874 9.96327 123.754 6.96643 122.445 4.57623C121.136 2.18604 118.133 1.3076 115.738 2.61419C113.342 3.92078 112.462 6.91762 113.772 9.30782C115.081 11.698 118.084 12.5765 120.479 11.2699Z" fill="#9F616A"/>
<path opacity="0.2" d="M118.656 31.6458L112.027 32.9906C112.001 31.9004 111.987 31.1994 111.987 31.1994C111.987 31.1994 112.063 30.9504 112.195 30.5155L118.656 31.6458Z" fill="#202020"/>
<path d="M99.0249 30.2361C99.2603 30.4375 99.5371 30.5849 99.8358 30.6681C100.134 30.7512 100.448 30.7679 100.754 30.7171C101.059 30.6664 101.35 30.5493 101.606 30.3741C101.862 30.1989 102.076 29.97 102.233 29.7033L109.623 31.1847L108.153 27.5618L101.361 26.7105C100.894 26.4764 100.358 26.4211 99.8537 26.5552C99.3492 26.6893 98.9116 27.0034 98.6237 27.4379C98.3358 27.8725 98.2176 28.3974 98.2915 28.9131C98.3655 29.4288 98.6264 29.8995 99.0249 30.2361Z" fill="#9F616A"/>
<path d="M107.777 27.3441L105.116 26.9771L104.228 30.6677L107.588 30.8597L107.777 27.3441Z" fill="#2A2B2F"/>
<path d="M106.867 26.6328L114.742 25.7609L118.921 18.3632C119.353 17.5986 120.048 17.017 120.878 16.727C121.708 16.4369 122.616 16.4582 123.431 16.7869C124.246 17.1156 124.914 17.7293 125.309 18.5132C125.705 19.2972 125.8 20.1979 125.579 21.0472L125.555 21.1391L118.531 31.3658L105.399 32.0121L106.867 26.6328Z" fill="#3F3D56"/>
<path d="M122.318 11.2244L118.216 11.3714C117.966 11.3803 117.287 8.68726 117.199 8.12859C117.128 7.76487 116.928 7.4391 116.635 7.21211C116.341 6.98512 115.975 6.87244 115.605 6.89511C115.298 6.92406 114.523 6.35154 113.724 5.67361C112.207 4.38657 112.286 1.9693 113.953 0.881746C113.998 0.852021 114.043 0.824881 114.087 0.800323C115.138 0.213128 116.368 0.0159409 117.572 0.000904066C118.664 -0.0127268 119.787 0.124439 120.749 0.640257C122.474 1.56501 123.392 3.58585 123.473 5.53811C123.553 7.49037 122.926 9.39932 122.215 11.2196" fill="#202020"/>
<path d="M139.853 86.0015H0.147059C0.108056 86.0015 0.0706513 85.986 0.0430724 85.9583C0.0154935 85.9306 0 85.8931 0 85.854C0 85.8148 0.0154935 85.7773 0.0430724 85.7496C0.0706513 85.722 0.108056 85.7064 0.147059 85.7064H139.853C139.892 85.7064 139.929 85.722 139.957 85.7496C139.985 85.7773 140 85.8148 140 85.854C140 85.8931 139.985 85.9306 139.957 85.9583C139.929 85.986 139.892 86.0015 139.853 86.0015Z" fill="#CBCBCB"/>
</g>
<defs>
<clipPath id="clip0_175_4">
<rect width="140" height="86" fill="white"/>
</clipPath>
</defs>
</svg>
