<svg width="164" height="86" viewBox="0 0 164 86" fill="none" xmlns="http://www.w3.org/2000/svg">
<g clip-path="url(#clip0_175_124)">
<path d="M17.7219 68.6036H150.55V1.09998H17.7219V68.6036Z" fill="white"/>
<path d="M151.645 69.7036H16.6257V0H151.645V69.7036ZM18.8172 67.5037H149.454V2.1999H18.8172V67.5037Z" fill="#E5E5E5"/>
<path d="M46.1535 37.9729L41.0597 44.1083L41.6066 38.3394L41.6584 37.7922H41.1088H38.6265V15.8807H79.2156V37.7922H46.5382H46.3035L46.1535 37.9729Z" stroke="#2A2B2F"/>
<path d="M99.7937 16.7401V31.4301H121.065L124.995 36.1633L124.547 31.4301H126.459V16.7401H99.7937Z" fill="#F0F0F0"/>
<path d="M12.0039 83.6412H13.923L14.8361 76.2102H12.0037L12.0039 83.6412Z" fill="#FFB7B7"/>
<path d="M11.5146 83.0122L15.2941 83.0121H15.2943C15.9331 83.0121 16.5457 83.2669 16.9974 83.7203C17.4491 84.1737 17.7028 84.7887 17.7029 85.4299V85.5085L11.5148 85.5088L11.5146 83.0122Z" fill="#2F2E41"/>
<path d="M35.061 83.5779L36.9247 83.1174L36.0424 75.6827L33.292 76.3622L35.061 83.5779Z" fill="#FFB7B7"/>
<path d="M34.436 83.0844L38.106 82.1777L38.1062 82.1777C38.7264 82.0245 39.3819 82.1249 39.9285 82.4569C40.475 82.7888 40.8678 83.3251 41.0205 83.9478L41.0392 84.0241L35.0304 85.5086L34.436 83.0844Z" fill="#2F2E41"/>
<path d="M10.8237 81.8693L11.2224 79.8217C11.2224 79.8217 11.9563 71.9155 17.2229 64.025L18.9372 55.4535C18.9372 55.4535 18.4281 48.9654 23.3419 45.4534L24.8569 44.4058L30.1683 44.7114L31.395 51.4534L33.8668 67.4059C33.8668 67.4059 34.5046 67.466 34.7438 69.3107C35.23 70.0854 35.5176 70.9688 35.581 71.8822C35.581 71.8822 36.846 75.3853 37.1849 77.9646L37.145 80.4884L34.4739 81.917L28.9067 66.1117L24.9248 57.2755C24.9248 57.2755 23.0083 63.5011 20.0728 68.8345C20.0728 68.8345 16.0522 77.5707 15.249 79.3455L14.3719 82.2503L10.8237 81.8693Z" fill="#2F2E41"/>
<path d="M28.5828 30.8393C30.6795 30.8393 32.3792 29.133 32.3792 27.0282C32.3792 24.9233 30.6795 23.217 28.5828 23.217C26.4861 23.217 24.7864 24.9233 24.7864 27.0282C24.7864 29.133 26.4861 30.8393 28.5828 30.8393Z" fill="#FFB7B7"/>
<path d="M28.5828 30.8393C30.6795 30.8393 32.3792 29.133 32.3792 27.0282C32.3792 24.9233 30.6795 23.217 28.5828 23.217C26.4861 23.217 24.7864 24.9233 24.7864 27.0282C24.7864 29.133 26.4861 30.8393 28.5828 30.8393Z" fill="#FFB8B8"/>
<path d="M23.353 45.4941L24.6063 42.3515C23.7208 39.4724 23.7751 36.3845 24.7612 33.5385L25.001 33.3403C27.0898 31.6134 28.9232 31.9278 30.6246 34.0402C30.8985 34.3836 31.2189 34.6869 31.5765 34.9413C32.3269 35.4698 33.5173 38.3411 31.9455 40.0241L30.6881 47.3875C30.8205 51.453 27.8818 49.9222 23.353 45.4941Z" fill="#2A2B2F"/>
<path d="M41.3231 41.2199C41.161 41.0969 40.9741 41.011 40.7754 40.9683C40.5767 40.9257 40.371 40.9273 40.173 40.973C39.975 41.0188 39.7894 41.1076 39.6292 41.2331C39.4691 41.3587 39.3383 41.5179 39.2461 41.6997L36.0794 41.4522L35.4602 43.3474L39.9371 43.6338C40.2515 43.7691 40.6045 43.7838 40.9291 43.6753C41.2537 43.5667 41.5273 43.3424 41.6981 43.0449C41.869 42.7473 41.9252 42.3972 41.8561 42.0609C41.7869 41.7245 41.5973 41.4253 41.3231 41.2199H41.3231Z" fill="#FFB7B7"/>
<path d="M38.2909 44.2941L29.2674 42.6027L26.3326 37.6632C26.144 37.1383 26.1708 36.5597 26.4072 36.0547C26.6436 35.5497 27.0701 35.1597 27.593 34.9704C28.1158 34.7811 28.6922 34.808 29.1952 35.0453C29.6983 35.2826 30.0868 35.7108 30.2754 36.2356L31.652 40.057L38.7882 41.2428L38.2909 44.2941Z" fill="#CCCCCC"/>
<path d="M21.8155 26.1935C23.8271 26.1935 25.4578 24.5565 25.4578 22.5372C25.4578 20.5178 23.8271 18.8809 21.8155 18.8809C19.804 18.8809 18.1733 20.5178 18.1733 22.5372C18.1733 24.5565 19.804 26.1935 21.8155 26.1935Z" fill="#2F2E41"/>
<path d="M18.6741 25.5649C19.1455 25.9069 19.6916 26.1307 20.2668 26.2174C20.842 26.3041 21.4296 26.2512 21.9803 26.0633C22.531 25.8753 23.0288 25.5577 23.4321 25.1369C23.8355 24.7162 24.1326 24.2047 24.2986 23.645C24.2358 24.1466 24.0701 24.6295 23.8119 25.0635C23.5538 25.4975 23.2088 25.873 22.7988 26.1664C22.3888 26.4598 21.9226 26.6646 21.4298 26.768C20.9369 26.8714 20.428 26.8711 19.9353 26.7671C19.4426 26.6631 18.9767 26.4577 18.567 26.1639C18.1573 25.87 17.8128 25.4941 17.5552 25.0598C17.2975 24.6255 17.1324 24.1423 17.0702 23.6407C17.0079 23.1392 17.05 22.6301 17.1936 22.1456C17.112 22.7965 17.2064 23.4574 17.4669 24.059C17.7274 24.6606 18.1444 25.1808 18.6741 25.5649Z" fill="#2F2E41"/>
<path d="M33.0475 25.5688C32.4117 24.426 32.1684 23.9487 31.3486 23.2538C30.6236 22.6392 29.7318 22.4588 29.0126 23.0411C28.1617 22.672 27.2149 22.5883 26.3129 22.8025C25.4108 23.0166 24.6016 23.5171 24.0055 24.2296C23.4094 24.9422 23.0582 25.8288 23.004 26.7577C22.9497 27.6866 23.1955 28.6082 23.7046 29.3858C24.2137 30.1633 24.9592 30.7553 25.8301 31.0737C26.7011 31.3921 27.6511 31.42 28.5391 31.1532C29.4271 30.8864 30.2057 30.3392 30.7592 29.5928C31.3127 28.8465 31.6117 27.9408 31.6116 27.0103C31.6109 26.8469 31.6011 26.6836 31.5822 26.5213C32.2075 26.4332 32.4223 25.6569 33.0475 25.5688Z" fill="#2F2E41"/>
<path d="M145.014 52.9225C145.026 52.6703 145.093 52.4238 145.21 52.2003C145.327 51.9769 145.492 51.7819 145.692 51.6291C145.892 51.4764 146.124 51.3696 146.369 51.3162C146.615 51.2628 146.87 51.2642 147.115 51.3203L149.39 48.1017L151.676 49.0125L148.399 53.5125C148.278 53.9199 148.012 54.2684 147.652 54.4922C147.292 54.716 146.863 54.7994 146.446 54.7267C146.029 54.6539 145.652 54.4301 145.389 54.0976C145.125 53.7651 144.992 53.347 145.014 52.9225Z" fill="#A0616A"/>
<path d="M147.51 50.1547L151.555 43.3252L149.907 38.9135L152.152 32.9048L152.235 32.9404C152.289 32.9638 153.564 33.5351 153.753 35.5811L156.333 43.719L149.449 52.6841L147.51 50.1547Z" fill="#2A2B2F"/>
<path d="M125.541 25.0475C125.791 25.0789 126.031 25.1649 126.244 25.2993C126.456 25.4338 126.637 25.6135 126.774 25.8257C126.91 26.0379 126.998 26.2776 127.032 26.5277C127.066 26.7779 127.045 27.0325 126.97 27.2736L129.991 29.7995L128.91 32.0167L124.694 28.3895C124.299 28.2368 123.973 27.9438 123.779 27.5662C123.584 27.1886 123.534 26.7525 123.639 26.3405C123.743 25.9286 123.995 25.5694 124.345 25.3311C124.696 25.0928 125.122 24.9919 125.541 25.0475Z" fill="#A0616A"/>
<path d="M128.098 27.7593L134.568 32.3358L139.077 31.0275L144.871 33.7385L144.829 33.8186C144.802 33.8711 144.136 35.1034 142.089 35.1344L133.807 37.0868L125.436 29.5037L128.098 27.7593Z" fill="#2A2B2F"/>
<path d="M139.936 83.412H137.687L136.617 74.7024L139.937 74.7026L139.936 83.412Z" fill="#A0616A"/>
<path d="M136.08 82.7667H140.418V85.5086H133.349C133.349 85.1485 133.42 84.792 133.557 84.4593C133.694 84.1267 133.895 83.8244 134.149 83.5698C134.403 83.3152 134.704 83.1132 135.035 82.9754C135.367 82.8376 135.722 82.7667 136.08 82.7667Z" fill="#2F2E41"/>
<path d="M148.927 83.412H146.677L145.607 74.7024L148.927 74.7026L148.927 83.412Z" fill="#A0616A"/>
<path d="M145.071 82.7667H149.409V85.5086H142.339C142.339 85.1485 142.41 84.792 142.547 84.4593C142.685 84.1267 142.886 83.8244 143.139 83.5698C143.393 83.3152 143.694 83.1132 144.025 82.9754C144.357 82.8376 144.712 82.7667 145.071 82.7667Z" fill="#2F2E41"/>
<path d="M149.726 51.6218L149.543 64.5143L149.371 80.3752C149.365 80.959 148.862 81.4132 148.28 81.3602L146.156 81.1664C145.674 81.1223 145.293 80.739 145.251 80.2565L143.305 57.6997L140.834 80.1994C140.778 80.7064 140.35 81.0903 139.84 81.0903H137.552C137.006 81.0903 136.561 80.6533 136.552 80.1081L136.149 57.5154L137.617 52.3584L149.726 51.6218Z" fill="#2F2E41"/>
<path d="M137.215 52.4372L136.6 52.4104L139.457 36.6154L138.287 31.8413C138.226 31.5929 138.258 31.3308 138.377 31.1046C138.496 30.8783 138.694 30.7038 138.932 30.6139L141.036 29.8219L141.78 27.7697L147.645 28.4041L147.789 30.008C148.424 30.2126 153.658 31.9623 153.297 33.9561C152.941 35.9239 150.836 42.1151 150.729 42.4289L150.361 51.3078L150.315 51.3306C150.261 51.358 146.218 53.3534 141.826 53.3531C140.242 53.3797 138.67 53.0675 137.215 52.4372Z" fill="#2A2B2F"/>
<path d="M144.482 26.7541C146.814 26.7541 148.705 24.8562 148.705 22.5149C148.705 20.1737 146.814 18.2758 144.482 18.2758C142.15 18.2758 140.259 20.1737 140.259 22.5149C140.259 24.8562 142.15 26.7541 144.482 26.7541Z" fill="#A0616A"/>
<path d="M147.903 26.6186C147.098 27.4792 145.603 27.0172 145.499 25.8415C145.49 25.7503 145.491 25.6584 145.5 25.5672C145.554 25.0465 145.854 24.5737 145.782 24.0238C145.766 23.887 145.715 23.7565 145.635 23.6449C144.994 22.7828 143.488 24.0305 142.883 23.2501C142.512 22.7715 142.948 22.0181 142.663 21.4833C142.287 20.7774 141.174 21.1256 140.476 20.739C139.699 20.3089 139.745 19.1124 140.257 18.3847C140.88 17.4972 141.974 17.0236 143.054 16.9553C144.133 16.8871 145.206 17.1801 146.214 17.5745C147.359 18.0226 148.495 18.6418 149.2 19.6528C150.057 20.8823 150.139 22.5353 149.711 23.973C149.45 24.8475 148.56 25.9159 147.903 26.6186Z" fill="#2F2E41"/>
<path d="M102.15 82.2408L102.777 80.6209L96.8516 77.4208L95.9255 79.8117L102.15 82.2408Z" fill="#FFB8B8"/>
<path d="M105.512 78.015C105.246 77.911 104.962 77.8608 104.677 77.867C104.391 77.8732 104.11 77.9358 103.849 78.0512C103.588 78.1666 103.352 78.3326 103.154 78.5396C102.957 78.7466 102.802 78.9906 102.699 79.2577L102.276 80.3497L101.623 82.0353L101.464 82.4487L103.555 83.2652L105.577 78.0412L105.512 78.015Z" fill="#2F2E41"/>
<path d="M101.623 79.1233L101.35 79.8496L100.67 81.6626L100.653 81.7079C98.9183 81.9317 97.0164 81.493 95.2573 80.8115C94.5535 80.539 93.8642 80.2302 93.1921 79.8863C92.1973 79.3817 91.3065 78.8492 90.596 78.3937C89.5261 77.7044 88.8645 77.1868 88.8645 77.1868C88.8645 77.1868 88.6898 77.3454 88.3735 77.6172C87.9496 77.9813 87.2723 78.5498 86.4144 79.2191C86.0871 79.4762 85.7357 79.7451 85.3602 80.0258C82.5921 82.0869 79.0398 76.5871 79.0398 76.5871C79.0398 76.5871 80.0389 75.9485 80.2999 75.8246C81.1403 75.4254 83.1147 74.4835 84.8181 73.6465C85.6957 73.2146 86.5003 72.8098 87.0405 72.522C88.9535 71.4996 91.3314 73.4342 91.3314 73.4342L101.623 79.1233Z" fill="#2F2E41"/>
<path opacity="0.14" d="M101.623 79.1233L101.35 79.8496L100.67 81.6626L100.653 81.7079C98.9183 81.9317 97.0164 81.493 95.2573 80.8115C94.5535 80.539 93.8642 80.2302 93.1921 79.8863C92.1973 79.3817 91.3065 78.8492 90.596 78.3937C89.5261 77.7044 88.8645 77.1868 88.8645 77.1868C88.8645 77.1868 88.6898 77.3454 88.3735 77.6172C87.9496 77.9813 87.2723 78.5498 86.4144 79.2191C86.0871 79.4762 85.7357 79.7451 85.3602 80.0258C82.5921 82.0869 79.0398 76.5871 79.0398 76.5871C79.0398 76.5871 80.0389 75.9485 80.2999 75.8246C81.1403 75.4254 83.1147 74.4835 84.8181 73.6465C85.6957 73.2146 86.5003 72.8098 87.0405 72.522C88.9535 71.4996 91.3314 73.4342 91.3314 73.4342L101.623 79.1233Z" fill="#2A2B2F"/>
<path d="M73.9357 63.8761H65.7449C65.5764 63.8759 65.4149 63.8087 65.2957 63.6891C65.1766 63.5695 65.1096 63.4073 65.1094 63.2382V59.694C65.1094 58.4345 65.6078 57.2265 66.495 56.3358C67.3822 55.4452 68.5856 54.9448 69.8403 54.9448C71.095 54.9448 72.2983 55.4452 73.1855 56.3358C74.0727 57.2265 74.5712 58.4345 74.5712 59.694V63.2382C74.571 63.4073 74.504 63.5695 74.3848 63.6891C74.2657 63.8087 74.1042 63.8759 73.9357 63.8761Z" fill="#2F2E41"/>
<path d="M81.7254 68.3278C81.5347 68.3614 81.3537 68.4366 81.1951 68.548C81.0365 68.6595 80.9042 68.8044 80.8074 68.9728C80.7107 69.1411 80.6519 69.3287 80.6352 69.5223C80.6184 69.7159 80.6442 69.9109 80.7107 70.0934L78.4834 72.1499L79.3982 73.8134L82.5029 70.865C82.8009 70.7326 83.0403 70.495 83.1755 70.1973C83.3108 69.8996 83.3325 69.5625 83.2367 69.2497C83.1409 68.937 82.9341 68.6704 82.6555 68.5005C82.377 68.3306 82.0461 68.2691 81.7254 68.3278V68.3278Z" fill="#FFB8B8"/>
<path d="M75.0234 77.6775C74.9227 77.6775 74.822 77.6732 74.7211 77.6645C74.1203 77.6141 73.542 77.4114 73.0406 77.0753C72.5392 76.7391 72.1311 76.2806 71.8546 75.7428L68.2864 68.8483C68.0526 68.3965 68.0013 67.8716 68.1431 67.3829C68.285 66.8941 68.6091 66.4791 69.048 66.2241C69.4869 65.9691 70.0069 65.8938 70.4997 66.0138C70.9925 66.1338 71.4203 66.4399 71.694 66.8685L74.986 74.2834L79.4654 70.6298L82.059 71.6434L77.6789 76.4977C77.3422 76.8688 76.9321 77.1653 76.4749 77.3684C76.0177 77.5716 75.5233 77.6768 75.0234 77.6775Z" fill="#5F727F"/>
<path d="M101.649 84.5194L102.399 82.9527L96.7358 79.3049L95.6296 81.6174L101.649 84.5194Z" fill="#FFB8B8"/>
<path d="M105.324 80.565C105.067 80.4409 104.788 80.3689 104.503 80.3531C104.218 80.3372 103.933 80.378 103.664 80.4729C103.394 80.5678 103.146 80.7151 102.934 80.9063C102.721 81.0975 102.548 81.3288 102.425 81.5872L101.919 82.6433L101.14 84.2736L100.949 84.6734L102.971 85.6488L105.388 80.5962L105.324 80.565Z" fill="#2F2E41"/>
<path d="M101.363 81.3703L101.035 82.0735L100.218 83.8285L100.198 83.8725C98.451 83.9618 96.5884 83.3777 94.8866 82.5626C94.2057 82.2366 93.5421 81.8755 92.8982 81.4809C91.945 80.9011 91.0977 80.3014 90.424 79.7924C89.4101 79.0227 88.7901 78.4556 88.7901 78.4556C88.7901 78.4556 88.6037 78.6002 88.2676 78.8469C87.8171 79.1772 87.0983 79.6918 86.1917 80.2929C85.8457 80.524 85.4747 80.765 85.0789 81.0159C82.1612 82.8574 78.0122 85.1002 74.483 85.5737C68.2849 86.4059 69.7437 78.1026 69.7437 78.1026L74.6765 75.5309L76.7708 75.9576L79.1024 76.4311L79.9285 76.5998C79.9285 76.5998 80.0853 76.5403 80.355 76.4368C81.2235 76.1037 83.2642 75.3169 85.0266 74.6137C85.9346 74.2508 86.7679 73.9091 87.3285 73.6638C89.314 72.792 91.5369 74.9043 91.5369 74.9043L101.363 81.3703Z" fill="#2F2E41"/>
<path d="M60.7174 85.7719C60.9061 85.7284 61.083 85.644 61.2356 85.5244C61.3883 85.4049 61.513 85.2533 61.6009 85.0801C61.6889 84.907 61.7379 84.7166 61.7446 84.5224C61.7514 84.3282 61.7156 84.1348 61.6398 83.956L63.7582 81.7867L62.759 80.1729L59.8103 83.2785C59.5195 83.4262 59.2927 83.6758 59.1729 83.9802C59.0532 84.2845 59.0488 84.6223 59.1606 84.9297C59.2724 85.237 59.4927 85.4925 59.7796 85.6477C60.0665 85.803 60.4002 85.8471 60.7174 85.7719H60.7174Z" fill="#FFB8B8"/>
<path d="M71.0001 64.0342C72.8241 64.0342 74.3028 62.5499 74.3028 60.7188C74.3028 58.8878 72.8241 57.4034 71.0001 57.4034C69.1761 57.4034 67.6975 58.8878 67.6975 60.7188C67.6975 62.5499 69.1761 64.0342 71.0001 64.0342Z" fill="#FFB8B8"/>
<path d="M66.7036 69.9221L69.5805 78.1099L69.5633 78.1386C69.1631 78.8026 69.0323 79.3383 69.1851 79.6876C69.2254 79.7764 69.2843 79.8554 69.3579 79.9191C69.4315 79.9828 69.518 80.0298 69.6114 80.0567L76.4195 75.2796L76.1811 73.365L76.1944 73.3436C76.8524 72.2867 77.0655 71.3295 76.8277 70.4987C76.6124 69.8265 76.1473 69.2635 75.5292 68.9265L75.5055 68.9077L72.1098 64.7589L67.5707 65.5685L66.7036 69.9221Z" fill="#2A2B2F"/>
<path d="M62.3284 84.2937L60.4011 81.9125L65.0472 74.2132L67.2133 67.4916L67.2805 67.5134L67.2133 67.4916C67.3317 67.1244 67.5271 66.7869 67.7863 66.502C68.0455 66.217 68.3626 65.9911 68.7162 65.8395C69.0697 65.6879 69.4516 65.6142 69.8359 65.6233C70.2202 65.6324 70.5982 65.7241 70.9442 65.8922C71.2903 66.0603 71.5964 66.301 71.842 66.5979C72.0876 66.8948 72.2669 67.2412 72.3679 67.6136C72.4688 67.9859 72.4891 68.3757 72.4273 68.7566C72.3656 69.1376 72.2231 69.5008 72.0097 69.8218L68.033 75.8028L62.3284 84.2937Z" fill="#5F727F"/>
<path d="M75.6906 60.0483H70.6821L70.6307 59.3264L70.3739 60.0483H69.6027L69.5009 58.6176L68.992 60.0483H67.4998V59.9774C67.5009 58.9814 67.8955 58.0265 68.5971 57.3222C69.2987 56.6179 70.2499 56.2217 71.2421 56.2206H71.9482C72.9404 56.2217 73.8916 56.6179 74.5932 57.3222C75.2948 58.0265 75.6894 58.9814 75.6906 59.9774V60.0483Z" fill="#2F2E41"/>
<path d="M70.6412 64.5376C70.6035 64.5376 70.5659 64.5342 70.5288 64.5276L66.8613 63.8781V57.7935H70.8985L70.7985 57.9104C69.4079 59.5385 70.4556 62.1785 71.2038 63.6073C71.259 63.7119 71.2836 63.8301 71.2748 63.9481C71.266 64.0662 71.2241 64.1793 71.1541 64.2746C71.0954 64.356 71.0183 64.4223 70.9292 64.468C70.84 64.5138 70.7413 64.5376 70.6412 64.5376Z" fill="#2F2E41"/>
<path d="M125.434 53.6367V62.2086H87.6063L82.144 68.7877L82.7678 62.2086H80.1101V53.6367H125.434Z" fill="#F0F0F0"/>
<path d="M95.8364 59.4626C96.6911 59.4626 97.384 58.767 97.384 57.909C97.384 57.051 96.6911 56.3555 95.8364 56.3555C94.9817 56.3555 94.2888 57.051 94.2888 57.909C94.2888 58.767 94.9817 59.4626 95.8364 59.4626Z" fill="white"/>
<path d="M90.614 59.4626C91.4687 59.4626 92.1616 58.767 92.1616 57.909C92.1616 57.051 91.4687 56.3555 90.614 56.3555C89.7593 56.3555 89.0664 57.051 89.0664 57.909C89.0664 58.767 89.7593 59.4626 90.614 59.4626Z" fill="white"/>
<path d="M85.3906 59.4626C86.2453 59.4626 86.9382 58.767 86.9382 57.909C86.9382 57.051 86.2453 56.3555 85.3906 56.3555C84.5359 56.3555 83.843 57.051 83.843 57.909C83.843 58.767 84.5359 59.4626 85.3906 59.4626Z" fill="white"/>
<path d="M187.762 85.6787H-1.05421C-1.10918 85.6787 -1.1619 85.6582 -1.20077 85.6218C-1.23964 85.5854 -1.26147 85.536 -1.26147 85.4845C-1.26147 85.433 -1.23964 85.3836 -1.20077 85.3472C-1.1619 85.3107 -1.10918 85.2903 -1.05421 85.2903H187.762C187.817 85.2903 187.87 85.3107 187.909 85.3472C187.947 85.3836 187.969 85.433 187.969 85.4845C187.969 85.536 187.947 85.5854 187.909 85.6218C187.87 85.6582 187.817 85.6787 187.762 85.6787Z" fill="#CACACA"/>
</g>
<defs>
<clipPath id="clip0_175_124">
<rect width="164" height="86" fill="white"/>
</clipPath>
</defs>
</svg>
