<svg width="52" height="52" viewBox="0 0 52 52" fill="none" xmlns="http://www.w3.org/2000/svg">
<path d="M6.61224 6.55556H35.6939M6.61224 6.55556V1H6C3.23858 1 1 3.23858 1 6V36.5556M6.61224 6.55556V36.5556H1M8.14286 42.6667H1V36.5556M38.7551 4.88889V1H44.8776V30.4444H38.7551V26.8333M38.7551 4.88889H40.7959M38.7551 4.88889V8.22222M38.7551 8.22222H40.7959M38.7551 8.22222V12.6667M38.7551 12.6667H40.7959M38.7551 12.6667V16.5556M38.7551 16.5556H40.7959M38.7551 16.5556V19.3333M38.7551 19.3333H41.3061M38.7551 19.3333V23.2222M38.7551 23.2222H41.3061M38.7551 23.2222V26.8333M38.7551 26.8333H41.3061M47.4286 6.55556H51V34.3333M51 34.3333L44.8776 42.1111M51 34.3333H45.8776C45.3253 34.3333 44.8776 34.7811 44.8776 35.3333V42.1111M44.8776 42.1111H32.1224M19.3673 12.6667H26V18.2222H19.3673M19.3673 12.6667H18.5737C17.0396 12.6667 15.7959 13.9103 15.7959 15.4444V15.4444C15.7959 16.9786 17.0396 18.2222 18.5737 18.2222H19.3673M19.3673 12.6667V18.2222M34.1633 34.8889V14.7075C34.1633 13.5804 33.2496 12.6667 32.1224 12.6667V12.6667C30.9953 12.6667 30.0816 13.5804 30.0816 14.7075V34.8889L31.8807 37.3376C32.0006 37.5008 32.2443 37.5008 32.3642 37.3376L34.1633 34.8889ZM16.7959 46.5556H23.7239C24.5945 46.5556 25.0493 45.5203 24.4604 44.8792L17.5324 37.3353C16.9159 36.6639 15.7959 37.1002 15.7959 38.0117V45.5556C15.7959 46.1078 16.2436 46.5556 16.7959 46.5556ZM12.7143 51H33.4498C34.3154 51 34.7721 49.975 34.1934 49.3314L13.4579 26.2723C12.8449 25.5907 11.7143 26.0242 11.7143 26.9409V50C11.7143 50.5523 12.162 51 12.7143 51Z" stroke="#2A2B2F" stroke-width="2" stroke-linecap="round"/>
</svg>
