<svg width="100" height="24" viewBox="0 0 100 24" fill="none" xmlns="http://www.w3.org/2000/svg">
<path d="M13.475 1.32975C11.7222 1.32132 9.97033 1.32237 8.21951 1.33396C4.46484 1.35609 1.03738 4.21669 0.288477 8.02871C-0.197241 10.4963 0.0740701 13.0039 0.0882961 15.4958C0.0923607 15.9467 0.138087 16.4061 0.231573 16.8465C1.11257 20.9736 4.48822 23.791 8.5589 23.8047C11.5454 23.8131 14.5308 23.8226 17.5173 23.7931C18.3292 23.7847 19.1451 23.6772 19.9489 23.5476C20.8218 23.4075 21.3187 22.8596 21.4711 21.9608C21.5351 21.5963 21.5879 21.2243 21.59 20.8577C21.6022 18.938 21.5961 17.0172 21.5961 15.0986C21.6022 15.0986 21.6103 15.0986 21.6164 15.0986C21.6164 13.1989 21.6743 11.2992 21.6042 9.40264C21.4426 4.95107 17.6981 1.35082 13.475 1.32975ZM9.77523 14.9532C9.27122 16.0953 8.74283 17.2279 8.18598 18.3437C7.91162 18.8927 7.31819 19.115 6.82231 18.9548C6.2746 18.7789 5.92708 18.2963 5.92708 17.7115C6.58758 16.2955 7.19523 14.8488 7.93804 13.4823C8.19614 13.0029 8.92675 13.0872 9.39722 13.4496C9.82401 13.7794 10.0161 14.4032 9.77523 14.9532ZM8.60463 10.707C7.79679 10.7186 7.02452 9.91365 7.04078 9.07707C7.05907 8.18675 7.76936 7.45765 8.61479 7.46502C9.45616 7.47134 10.1827 8.22574 10.1807 9.08656C10.1786 9.93473 9.4399 10.6954 8.60463 10.707ZM14.5237 18.1478C14.4546 18.2731 14.3753 18.3922 14.29 18.506C13.8591 19.0834 13.1885 19.2277 12.653 18.8632C12.1134 18.4954 11.9224 17.7874 12.2699 17.1784C12.8531 16.1575 13.3439 15.1059 13.5065 13.9185C13.5665 13.4707 13.5878 13.0176 13.6274 12.5667C13.6234 10.9747 13.2261 9.508 12.4111 8.16147C11.9325 7.3723 12.0321 6.61791 12.655 6.21226C13.2779 5.8045 14.0085 6.02787 14.4627 6.82231C16.6068 10.5817 16.6129 14.3621 14.5237 18.1478Z" fill="white"/>
<path d="M46.5273 7.04246C46.5273 9.89252 46.5232 12.7426 46.5293 15.5926C46.5313 16.5599 46.3627 17.4818 45.878 18.3215C45.1809 19.529 43.7064 20.1959 42.2595 19.9652C40.9618 19.7587 40.1835 18.9632 39.8796 17.3965C39.7364 16.6515 39.6795 15.8813 39.6713 15.1206L39.6612 6.22274H29.9681V5.49152C29.9681 4.3399 29.958 2.44443 29.9742 1.29492H25.8477L25.8558 17.3828C25.8578 18.1056 25.8873 18.8294 25.9574 19.548C26.1881 22.0008 27.3333 23.3242 29.5159 23.6971C29.7913 23.7446 30.0657 23.7941 30.3421 23.831C31.7555 24.0238 33.1009 23.7267 34.49 23.2957C34.2918 22.3127 34.1049 21.3865 33.9149 20.4646C33.8854 20.3287 33.8315 20.1991 33.7878 20.06C33.3417 20.1148 32.9302 20.1854 32.5176 20.2139C31.1083 20.3097 30.1297 19.7345 30.0789 18.4501C29.9681 15.6148 30.0454 12.7679 30.0454 9.88725H35.561C35.561 10.1528 35.561 10.374 35.561 10.5963C35.5691 12.9512 35.5254 15.3071 35.6006 17.6588C35.7155 21.1885 37.2123 23.1767 40.531 23.9121C42.3255 24.3083 45.2845 23.3632 46.3992 21.1242C46.4663 20.9904 46.5639 20.8755 46.6472 20.7512L46.7661 20.7828V23.4885H50.6061V6.28279H46.5273V7.04246Z" fill="white"/>
<path d="M89.6566 1.30518H85.6012L85.592 18.3929C85.5961 19.1505 85.7089 19.9165 85.8694 20.6561C86.1357 21.8941 86.8104 22.8455 87.983 23.3123C89.1282 23.7696 90.3253 24.0003 91.5517 23.8518C92.4287 23.7453 93.2944 23.5926 94.2049 23.4198C93.961 22.2397 93.7466 21.1334 93.5221 20.0534C93.1095 20.104 92.7742 20.1546 92.4409 20.1862C90.5874 20.36 89.6902 19.5593 89.6678 17.6269L89.6617 9.82902L95.2891 9.83534L95.2688 23.3165C96.6782 23.3165 97.9982 23.3165 99.3121 23.3165C99.3121 17.6006 99.3121 11.9531 99.3121 6.24985H89.6485L89.6566 1.30518Z" fill="white"/>
<path d="M66.0625 8.00039C64.1908 6.028 61.8414 5.52121 59.2909 5.8963C51.5347 7.03948 49.9769 15.5064 53.2652 20.0866C55.5616 23.2906 58.7767 24.3358 62.5202 23.6447C64.6033 23.2622 66.281 22.1422 67.6365 20.4037C66.6559 19.6345 65.6957 18.8791 64.7192 18.111C62.9521 20.2056 60.8507 21.0264 58.3225 19.9959C56.7841 19.3701 56.0118 18.0689 55.7883 16.284C60.0134 16.284 64.1826 16.284 68.361 16.284C68.361 15.4316 68.4119 14.6667 68.3529 13.9102C68.1883 11.6965 67.606 9.62719 66.0625 8.00039ZM55.8695 13.0567C55.7557 10.8336 57.7352 8.96235 60.1597 8.98343C62.6452 9.00555 64.4153 10.7461 64.2507 13.0567C61.4584 13.0567 58.6639 13.0567 55.8695 13.0567Z" fill="white"/>
<path d="M78.3041 5.79579C76.2495 5.86112 74.6165 6.71983 73.6045 8.65429C73.5628 8.73225 73.4652 8.88187 73.3423 9.07468C73.3423 8.08638 73.3423 7.17394 73.3423 6.31734L69.4941 6.30996C69.4941 12.0586 69.4941 17.7408 69.4941 23.4061C70.8558 23.4061 72.1758 23.4061 73.5374 23.4061C73.5374 23.1016 73.5374 22.7708 73.5374 22.5253L73.5587 14.3502C73.5801 13.4599 73.7213 12.5264 74.0292 11.7003C74.585 10.2073 76.1093 9.44556 77.7564 9.65523C79.1496 9.83224 79.9391 10.672 80.2348 12.3989C80.3639 13.1448 80.4177 13.914 80.4238 14.6747C80.4472 17.3172 80.435 20.0588 80.435 22.7023C80.435 22.9415 80.435 23.1796 80.435 23.4146C81.8444 23.4146 83.1623 23.4146 84.4864 23.4146L84.4518 11.6202C84.2994 7.83772 81.8962 5.682 78.3041 5.79579Z" fill="white"/>
<path d="M97.2909 5.14065C98.7755 5.14276 100.002 3.98799 99.9999 2.58982C99.9979 1.21905 98.7297 0.00211357 97.297 6.31284e-06C95.8876 -0.00315457 94.6916 1.18112 94.6875 2.5835C94.6855 4.0059 95.8368 5.1396 97.2909 5.14065Z" fill="white"/>
</svg>
