<svg width="48" height="56" viewBox="0 0 48 56" xmlns="http://www.w3.org/2000/svg">
<path d="M28.8592 24.6794V23.6794H27.8592V24.6794H28.8592ZM20.5544 24.6794H21.5544V23.6794H20.5544V24.6794ZM26.6847 44.9236C26.8618 44.4005 26.5814 43.8329 26.0583 43.6557C25.5352 43.4785 24.9675 43.7589 24.7904 44.282L26.6847 44.9236ZM22.67 50.5421C22.4928 51.0652 22.7733 51.6329 23.2963 51.81C23.8194 51.9872 24.3871 51.7068 24.5643 51.1837L22.67 50.5421ZM30.006 44.5894C29.5476 44.2813 28.9263 44.4031 28.6182 44.8615C28.3101 45.3199 28.4319 45.9412 28.8903 46.2493L30.006 44.5894ZM32.6876 47.5968L33.2733 48.4073L34.4361 47.5671L33.2454 46.7668L32.6876 47.5968ZM28.8625 49.127C28.4148 49.4504 28.3141 50.0755 28.6376 50.5232C28.9611 50.9708 29.5862 51.0715 30.0338 50.748L28.8625 49.127ZM20.4067 46.2853C20.885 46.009 21.0487 45.3974 20.7724 44.9192C20.4962 44.4409 19.8846 44.2772 19.4063 44.5534L20.4067 46.2853ZM16.137 47.5968L15.6368 46.7309L14.1914 47.5658L15.6095 48.4463L16.137 47.5968ZM19.379 50.787C19.8482 51.0784 20.4647 50.9342 20.7561 50.465C21.0474 49.9958 20.9032 49.3793 20.4341 49.088L19.379 50.787ZM4.29834 3.91936C3.74605 3.91936 3.29834 4.36707 3.29834 4.91936C3.29834 5.47164 3.74605 5.91936 4.29834 5.91936V3.91936ZM7.18438 5.91936C7.73666 5.91936 8.18438 5.47164 8.18438 4.91936C8.18438 4.36707 7.73666 3.91936 7.18438 3.91936V5.91936ZM10.4827 3.91936C9.93043 3.91936 9.48271 4.36707 9.48271 4.91936C9.48271 5.47164 9.93043 5.91936 10.4827 5.91936V3.91936ZM13.4866 5.91936C14.0388 5.91936 14.4866 5.47164 14.4866 4.91936C14.4866 4.36707 14.0388 3.91936 13.4866 3.91936V5.91936ZM16.6082 3.91936C16.0559 3.91936 15.6082 4.36707 15.6082 4.91936C15.6082 5.47164 16.0559 5.91936 16.6082 5.91936V3.91936ZM19.7298 5.91936C20.2821 5.91936 20.7298 5.47164 20.7298 4.91936C20.7298 4.36707 20.2821 3.91936 19.7298 3.91936V5.91936ZM37.5762 3.91936C37.0239 3.91936 36.5762 4.36707 36.5762 4.91936C36.5762 5.47164 37.0239 5.91936 37.5762 5.91936V3.91936ZM43.6428 5.91936C44.195 5.91936 44.6428 5.47164 44.6428 4.91936C44.6428 4.36707 44.195 3.91936 43.6428 3.91936V5.91936ZM32.4296 24.355L33.2124 23.7326L32.4296 24.355ZM16.4312 24.3469L15.6822 23.6843L16.4312 24.3469ZM25.0024 15.0132L24.2196 15.6356L25.0024 15.0132ZM24.6961 15.0052L23.9471 14.3426L24.6961 15.0052ZM6 2H42V0H6V2ZM42 33.9133H28.8592V35.9133H42V33.9133ZM27.8592 34.9133V40.3024H29.8592V34.9133H27.8592ZM28.8592 41.3024H32.3995V39.3024H28.8592V41.3024ZM36.3995 45.3024V50H38.3995V45.3024H36.3995ZM32.3995 54H16.6607V56H32.3995V54ZM12.6607 50V45.3024H10.6607V50H12.6607ZM16.6607 41.3024H20.5544V39.3024H16.6607V41.3024ZM21.5544 40.3024V34.9133H19.5544V40.3024H21.5544ZM20.5544 33.9133H6V35.9133H20.5544V33.9133ZM2 29.9133V8.62097H0V29.9133H2ZM2 8.62097V6H0V8.62097H2ZM46 6V8.62097H48V6H46ZM46 8.62097V29.9133H48V8.62097H46ZM1 9.62097H47V7.62097H1V9.62097ZM29.8592 34.9133V24.6794H27.8592V34.9133H29.8592ZM28.8592 25.6794H32.2731V23.6794H28.8592V25.6794ZM33.2124 23.7326L25.7852 14.3909L24.2196 15.6356L31.6469 24.9773L33.2124 23.7326ZM23.9471 14.3426L15.6822 23.6843L17.1802 25.0095L25.445 15.6678L23.9471 14.3426ZM16.581 25.6794H20.5544V23.6794H16.581V25.6794ZM19.5544 24.6794V34.9133H21.5544V24.6794H19.5544ZM20.5544 41.3024H28.8592V39.3024H20.5544V41.3024ZM24.7904 44.282L22.67 50.5421L24.5643 51.1837L26.6847 44.9236L24.7904 44.282ZM28.8903 46.2493L32.1297 48.4267L33.2454 46.7668L30.006 44.5894L28.8903 46.2493ZM32.1019 46.7862L28.8625 49.127L30.0338 50.748L33.2733 48.4073L32.1019 46.7862ZM19.4063 44.5534L15.6368 46.7309L16.6372 48.4627L20.4067 46.2853L19.4063 44.5534ZM15.6095 48.4463L19.379 50.787L20.4341 49.088L16.6645 46.7472L15.6095 48.4463ZM4.29834 5.91936H7.18438V3.91936H4.29834V5.91936ZM10.4827 5.91936H13.4866V3.91936H10.4827V5.91936ZM16.6082 5.91936H19.7298V3.91936H16.6082V5.91936ZM37.5762 5.91936H43.6428V3.91936H37.5762V5.91936ZM32.2731 25.6794C33.2776 25.6794 33.8375 24.5189 33.2124 23.7326L31.6469 24.9773C31.2301 24.4531 31.6034 23.6794 32.2731 23.6794V25.6794ZM12.6607 45.3024C12.6607 43.0933 14.4516 41.3024 16.6607 41.3024V39.3024C13.347 39.3024 10.6607 41.9887 10.6607 45.3024H12.6607ZM16.6607 54C14.4516 54 12.6607 52.2091 12.6607 50H10.6607C10.6607 53.3137 13.347 56 16.6607 56V54ZM42 35.9133C45.3137 35.9133 48 33.227 48 29.9133H46C46 32.1225 44.2091 33.9133 42 33.9133V35.9133ZM15.6822 23.6843C14.997 24.4588 15.5469 25.6794 16.581 25.6794V23.6794C17.2704 23.6794 17.637 24.4932 17.1802 25.0095L15.6822 23.6843ZM36.3995 50C36.3995 52.2091 34.6086 54 32.3995 54V56C35.7132 56 38.3995 53.3137 38.3995 50H36.3995ZM42 2C44.2091 2 46 3.79086 46 6H48C48 2.68629 45.3137 0 42 0V2ZM25.7852 14.3909C25.3208 13.8068 24.4416 13.7837 23.9471 14.3426L25.445 15.6678C25.1154 16.0404 24.5292 16.025 24.2196 15.6356L25.7852 14.3909ZM32.3995 41.3024C34.6086 41.3024 36.3995 43.0933 36.3995 45.3024H38.3995C38.3995 41.9887 35.7132 39.3024 32.3995 39.3024V41.3024ZM6 33.9133C3.79086 33.9133 2 32.1224 2 29.9133H0C0 33.227 2.68629 35.9133 6 35.9133V33.9133ZM6 0C2.68629 0 0 2.68629 0 6H2C2 3.79086 3.79086 2 6 2V0Z"/>
</svg>
