<svg width="154" height="80" viewBox="0 0 154 80" fill="none" xmlns="http://www.w3.org/2000/svg">
<rect opacity="0.2" width="154" height="80" rx="5" fill="white"/>
<path d="M40.475 29.3297C38.7222 29.3213 36.9703 29.3224 35.2195 29.334C31.4648 29.3561 28.0374 32.2167 27.2885 36.0287C26.8028 38.4963 27.0741 41.0039 27.0883 43.4958C27.0924 43.9467 27.1381 44.4061 27.2316 44.8465C28.1126 48.9736 31.4882 51.791 35.5589 51.8047C38.5454 51.8131 41.5308 51.8226 44.5173 51.7931C45.3292 51.7847 46.1451 51.6772 46.9489 51.5476C47.8218 51.4075 48.3187 50.8596 48.4711 49.9608C48.5351 49.5963 48.5879 49.2243 48.59 48.8577C48.6022 46.938 48.5961 45.0172 48.5961 43.0986C48.6022 43.0986 48.6103 43.0986 48.6164 43.0986C48.6164 41.1989 48.6743 39.2992 48.6042 37.4026C48.4426 32.9511 44.6981 29.3508 40.475 29.3297ZM36.7752 42.9532C36.2712 44.0953 35.7428 45.2279 35.186 46.3437C34.9116 46.8927 34.3182 47.115 33.8223 46.9548C33.2746 46.7789 32.9271 46.2963 32.9271 45.7115C33.5876 44.2955 34.1952 42.8488 34.938 41.4823C35.1961 41.0029 35.9267 41.0872 36.3972 41.4496C36.824 41.7794 37.0161 42.4032 36.7752 42.9532ZM35.6046 38.707C34.7968 38.7186 34.0245 37.9137 34.0408 37.0771C34.0591 36.1868 34.7694 35.4576 35.6148 35.465C36.4562 35.4713 37.1827 36.2257 37.1807 37.0866C37.1786 37.9347 36.4399 38.6954 35.6046 38.707ZM41.5237 46.1478C41.4546 46.2731 41.3753 46.3922 41.29 46.506C40.8591 47.0834 40.1885 47.2277 39.653 46.8632C39.1134 46.4954 38.9224 45.7874 39.2699 45.1784C39.8531 44.1575 40.3439 43.1059 40.5065 41.9185C40.5665 41.4707 40.5878 41.0176 40.6274 40.5667C40.6234 38.9747 40.2261 37.508 39.4111 36.1615C38.9325 35.3723 39.0321 34.6179 39.655 34.2123C40.2779 33.8045 41.0085 34.0279 41.4627 34.8223C43.6068 38.5817 43.6129 42.3621 41.5237 46.1478Z" fill="white"/>
<path d="M73.5273 35.0425C73.5273 37.8925 73.5232 40.7426 73.5293 43.5926C73.5313 44.5599 73.3627 45.4818 72.878 46.3215C72.1809 47.529 70.7064 48.1959 69.2595 47.9652C67.9618 47.7587 67.1835 46.9632 66.8796 45.3965C66.7364 44.6515 66.6795 43.8813 66.6713 43.1206L66.6612 34.2227H56.9681V33.4915C56.9681 32.3399 56.958 30.4444 56.9742 29.2949H52.8477L52.8558 45.3828C52.8578 46.1056 52.8873 46.8294 52.9574 47.548C53.1881 50.0008 54.3333 51.3242 56.5159 51.6971C56.7913 51.7446 57.0657 51.7941 57.3421 51.831C58.7555 52.0238 60.1009 51.7267 61.49 51.2957C61.2918 50.3127 61.1049 49.3865 60.9149 48.4646C60.8854 48.3287 60.8315 48.1991 60.7878 48.06C60.3417 48.1148 59.9302 48.1854 59.5176 48.2139C58.1083 48.3097 57.1297 47.7345 57.0789 46.4501C56.9681 43.6148 57.0454 40.7679 57.0454 37.8873H62.561C62.561 38.1528 62.561 38.374 62.561 38.5963C62.5691 40.9512 62.5254 43.3071 62.6006 45.6588C62.7155 49.1885 64.2123 51.1767 67.531 51.9121C69.3255 52.3083 72.2845 51.3632 73.3992 49.1242C73.4663 48.9904 73.5639 48.8755 73.6472 48.7512L73.7661 48.7828V51.4885H77.6061V34.2828H73.5273V35.0425V35.0425Z" fill="white"/>
<path d="M116.657 29.3052H112.601L112.592 46.3929C112.596 47.1505 112.709 47.9165 112.869 48.6561C113.136 49.8941 113.81 50.8455 114.983 51.3123C116.128 51.7696 117.325 52.0003 118.552 51.8518C119.429 51.7453 120.294 51.5926 121.205 51.4198C120.961 50.2397 120.747 49.1334 120.522 48.0534C120.11 48.104 119.774 48.1546 119.441 48.1862C117.587 48.36 116.69 47.5593 116.668 45.6269L116.662 37.829L122.289 37.8353L122.269 51.3165C123.678 51.3165 124.998 51.3165 126.312 51.3165C126.312 45.6006 126.312 39.9531 126.312 34.2499H116.648L116.657 29.3052Z" fill="white"/>
<path d="M93.0625 36.0004C91.1908 34.028 88.8414 33.5212 86.2909 33.8963C78.5347 35.0395 76.9769 43.5064 80.2652 48.0866C82.5616 51.2906 85.7767 52.3358 89.5202 51.6447C91.6033 51.2622 93.281 50.1422 94.6365 48.4037C93.6559 47.6345 92.6957 46.8791 91.7192 46.111C89.9521 48.2056 87.8507 49.0264 85.3225 47.9959C83.7841 47.3701 83.0118 46.0689 82.7883 44.284C87.0134 44.284 91.1826 44.284 95.361 44.284C95.361 43.4316 95.4119 42.6667 95.3529 41.9102C95.1883 39.6965 94.606 37.6272 93.0625 36.0004ZM82.8695 41.0567C82.7557 38.8336 84.7352 36.9624 87.1597 36.9834C89.6452 37.0056 91.4153 38.7461 91.2507 41.0567C88.4584 41.0567 85.6639 41.0567 82.8695 41.0567Z" fill="white"/>
<path d="M105.304 33.7958C103.249 33.8611 101.617 34.7198 100.604 36.6543C100.563 36.7323 100.465 36.8819 100.342 37.0747C100.342 36.0864 100.342 35.1739 100.342 34.3173L96.4941 34.31C96.4941 40.0586 96.4941 45.7408 96.4941 51.4061C97.8558 51.4061 99.1758 51.4061 100.537 51.4061C100.537 51.1016 100.537 50.7708 100.537 50.5253L100.559 42.3502C100.58 41.4599 100.721 40.5264 101.029 39.7003C101.585 38.2073 103.109 37.4456 104.756 37.6552C106.15 37.8322 106.939 38.672 107.235 40.3989C107.364 41.1448 107.418 41.914 107.424 42.6747C107.447 45.3172 107.435 48.0588 107.435 50.7023C107.435 50.9415 107.435 51.1796 107.435 51.4146C108.844 51.4146 110.162 51.4146 111.486 51.4146L111.452 39.6202C111.299 35.8377 108.896 33.682 105.304 33.7958Z" fill="white"/>
<path d="M124.291 33.1407C125.775 33.1428 127.002 31.988 127 30.5898C126.998 29.2191 125.73 28.0021 124.297 28C122.888 27.9968 121.692 29.1811 121.688 30.5835C121.685 32.0059 122.837 33.1396 124.291 33.1407Z" fill="white"/>
</svg>
