<svg width="50" height="50" viewBox="0 0 50 50" xmlns="http://www.w3.org/2000/svg">
<path d="M49.9414 3.73259C49.8331 1.74647 48.2535 0.167077 46.2674 0.0586792C42.2598 -0.160265 34.4176 0.0527224 26.9188 3.93132C23.096 5.90866 19.053 9.26109 15.8266 13.129C15.7868 13.1767 15.7482 13.2246 15.7087 13.2724L8.38645 13.838C7.18117 13.9312 6.10764 14.5629 5.44104 15.5711L0.445532 23.127C-0.0600342 23.8916 -0.140405 24.8485 0.230395 25.6867C0.601294 26.525 1.3634 27.1092 2.26916 27.2495L8.4382 28.205C8.41643 28.3249 8.39455 28.4447 8.37453 28.5646C8.16916 29.7931 8.57619 31.0562 9.4635 31.9434L18.0565 40.5365C18.7921 41.2721 19.7861 41.6777 20.8047 41.6777C21.0145 41.6777 21.2254 41.6604 21.4354 41.6253C21.5553 41.6053 21.6751 41.5834 21.795 41.5617L22.7505 47.7308C22.8908 48.6365 23.475 49.3987 24.3131 49.7695C24.6618 49.9238 25.0309 50 25.3983 50C25.9142 49.9999 26.4265 49.8497 26.873 49.5545L34.4288 44.5589C35.4371 43.8922 36.0688 42.8187 36.1617 41.6135L36.7274 34.2914C36.7751 34.2519 36.8232 34.2132 36.8708 34.1735C40.7389 30.947 44.0914 26.9041 46.0687 23.0813C49.9475 15.5822 50.1601 7.7399 49.9414 3.73259V3.73259ZM32.8131 42.115L25.5855 46.8936L24.6542 40.8814C27.7089 39.9832 30.7307 38.5448 33.6095 36.6177L33.241 41.3877C33.2181 41.6853 33.062 41.9504 32.8131 42.115V42.115ZM20.128 38.4649L11.535 29.8719C11.3157 29.6525 11.2144 29.3444 11.2641 29.0476C11.5196 27.52 11.9165 26.0658 12.4079 24.6959L25.3013 37.5892C23.656 38.1786 22.1822 38.5301 20.9523 38.7358C20.655 38.7852 20.3473 38.6841 20.128 38.4649V38.4649ZM8.61213 16.759L13.382 16.3906C11.4549 19.2694 10.0164 22.2911 9.11828 25.3458L3.10618 24.4146L7.88488 17.1869C8.04953 16.9379 8.31467 16.782 8.61213 16.759V16.759ZM34.9944 31.9236C32.6279 33.8975 30.3308 35.3252 28.2134 36.3584L13.641 21.786C14.9944 19.022 16.646 16.7203 18.0763 15.0057C21.0621 11.4261 24.7757 8.33814 28.2649 6.53346C35.1471 2.97361 42.3982 2.78191 46.1079 2.98386C46.5989 3.01062 46.9895 3.40115 47.0162 3.89226C47.2185 7.60201 47.0264 14.853 43.4665 21.7353C41.6619 25.2243 38.5739 28.9378 34.9944 31.9236Z"/>
<path d="M34.25 23.0705C36.1252 23.0703 38.0012 22.3564 39.4289 20.9288C40.8123 19.5455 41.574 17.7062 41.574 15.75C41.574 13.7937 40.8122 11.9545 39.4289 10.5712C36.5732 7.71543 31.9267 7.71563 29.0712 10.5712C27.6878 11.9545 26.926 13.7937 26.926 15.75C26.926 17.7062 27.6879 19.5455 29.0712 20.9288C30.4992 22.3567 32.3742 23.0706 34.25 23.0705ZM31.1426 12.6427C31.9993 11.7859 33.1246 11.3576 34.2499 11.3576C35.3752 11.3576 36.5005 11.7859 37.3572 12.6427C38.1872 13.4726 38.6442 14.5761 38.6442 15.7499C38.6442 16.9236 38.1872 18.0272 37.3572 18.8572C35.6439 20.5706 32.8559 20.5705 31.1425 18.8572C30.3125 18.0272 29.8554 16.9237 29.8554 15.75C29.8554 14.5762 30.3126 13.4726 31.1426 12.6427Z"/>
<path d="M1.49458 41.2047C1.86948 41.2047 2.24438 41.0617 2.53032 40.7756L7.31284 35.9931C7.88491 35.421 7.88491 34.4936 7.31284 33.9215C6.74087 33.3494 5.81333 33.3494 5.24126 33.9215L0.458838 38.704C-0.113232 39.2761 -0.113232 40.2035 0.458838 40.7756C0.744775 41.0616 1.11968 41.2047 1.49458 41.2047V41.2047Z"/>
<path d="M11.6954 38.3041C11.1234 37.732 10.1958 37.732 9.62378 38.3041L0.429053 47.4988C-0.143018 48.0709 -0.143018 48.9983 0.429053 49.5704C0.715088 49.8564 1.08989 49.9994 1.46479 49.9994C1.8397 49.9994 2.2146 49.8564 2.50054 49.5703L11.6953 40.3756C12.2674 39.8036 12.2674 38.8761 11.6954 38.3041V38.3041Z"/>
<path d="M14.007 42.6871L9.22446 47.4696C8.65239 48.0417 8.65239 48.9691 9.22446 49.5412C9.5105 49.8272 9.8854 49.9703 10.2602 49.9703C10.635 49.9703 11.01 49.8273 11.2959 49.5412L16.0785 44.7587C16.6505 44.1866 16.6505 43.2592 16.0785 42.6871C15.5065 42.115 14.579 42.115 14.007 42.6871Z"/>
</svg>
