<svg width="50" height="50" viewBox="0 0 50 50" xmlns="http://www.w3.org/2000/svg">
<path d="M25.2606 14.6677H32.9928C33.666 14.6677 34.2136 14.1201 34.2136 13.447V5.68239C34.2136 5.00924 33.666 4.46167 32.9928 4.46167H25.2606C24.5874 4.46167 24.0398 5.00924 24.0398 5.68239V7.51953C24.0398 7.92413 24.3677 8.25197 24.7723 8.25197C25.1769 8.25197 25.5048 7.92413 25.5048 7.51953V5.92654H32.7486V13.2029H25.5048V11.0436C25.5048 10.639 25.1769 10.3112 24.7723 10.3112C24.3677 10.3112 24.0398 10.639 24.0398 11.0436V13.4471C24.0398 14.1201 24.5874 14.6677 25.2606 14.6677Z"/>
<path d="M11.6185 13.4842H21.5974C22.002 13.4842 22.3299 13.1563 22.3299 12.7517C22.3299 12.3471 22.002 12.0193 21.5974 12.0193H11.6185C11.2139 12.0193 10.886 12.3471 10.886 12.7517C10.886 13.1563 11.214 13.4842 11.6185 13.4842Z"/>
<path d="M28.3172 18.9436C28.3172 18.539 27.9894 18.2112 27.5847 18.2112H17.5152C17.1106 18.2112 16.7827 18.539 16.7827 18.9436C16.7827 19.3482 17.1106 19.6761 17.5152 19.6761H27.5847C27.9893 19.6761 28.3172 19.3481 28.3172 18.9436Z"/>
<path d="M11.6185 10.2971H21.5974C22.002 10.2971 22.3299 9.96931 22.3299 9.56471C22.3299 9.16011 22.002 8.83228 21.5974 8.83228H11.6185C11.2139 8.83228 10.886 9.16011 10.886 9.56471C10.886 9.96931 11.214 10.2971 11.6185 10.2971Z"/>
<path d="M11.6185 7.11038H21.5974C22.002 7.11038 22.3299 6.78254 22.3299 6.37794C22.3299 5.97335 22.002 5.64551 21.5974 5.64551H11.6185C11.2139 5.64551 10.886 5.97335 10.886 6.37794C10.886 6.78254 11.214 7.11038 11.6185 7.11038Z"/>
<path d="M11.6185 27.7798H26.645C27.0496 27.7798 27.3775 27.452 27.3775 27.0474C27.3775 26.6428 27.0496 26.3149 26.645 26.3149H11.6185C11.2139 26.3149 10.886 26.6428 10.886 27.0474C10.886 27.452 11.214 27.7798 11.6185 27.7798V27.7798Z"/>
<path d="M11.6185 23.6824H23.5023C23.907 23.6824 24.2348 23.3546 24.2348 22.95C24.2348 22.5454 23.907 22.2175 23.5023 22.2175H11.6185C11.2139 22.2175 10.886 22.5454 10.886 22.95C10.886 23.3546 11.214 23.6824 11.6185 23.6824Z"/>
<path d="M33.5267 22.2175H26.6776C26.2729 22.2175 25.9451 22.5454 25.9451 22.95C25.9451 23.3546 26.2729 23.6824 26.6776 23.6824H33.5267C33.9314 23.6824 34.2592 23.3546 34.2592 22.95C34.2592 22.5454 33.9313 22.2175 33.5267 22.2175Z"/>
<path d="M49.1503 45.3059C49.1415 45.2971 49.1323 45.2886 49.123 45.2803L44.6154 41.2698C45.3276 39.9723 45.7341 38.5185 45.7881 37.0032C45.8024 36.5989 45.4864 36.2596 45.0821 36.2451C44.6771 36.2331 44.3385 36.5468 44.324 36.951C44.213 41.2655 40.5583 44.8193 36.2347 44.7761C31.7714 44.7761 28.1401 41.133 28.1401 36.6551C28.0725 32.2666 31.8518 28.4719 36.2347 28.5341C39.6492 28.5341 42.7137 30.7006 43.8606 33.9251C43.9962 34.3061 44.4155 34.5055 44.7962 34.3698C45.1774 34.2342 45.3764 33.8154 45.2409 33.4343C44.0175 29.9944 40.9447 27.5751 37.3888 27.1401V1.22072C37.3888 0.547567 36.8411 0 36.1679 0H8.93169C8.25848 0 7.71086 0.547567 7.71086 1.22072V3.86989H5.07631C4.4031 3.86989 3.85548 4.41745 3.85548 5.09061V7.73968H1.22083C0.547616 7.73968 0 8.28724 0 8.9604V45.4987C0 46.1718 0.547616 46.7194 1.22083 46.7194H24.5448C25.2181 46.7194 25.7657 46.1718 25.7657 45.4987V42.8495H28.9456C30.7005 44.9228 33.3169 46.2411 36.2348 46.2411C37.8383 46.2411 39.3863 45.8447 40.7637 45.1L45.3056 49.1674C46.3856 50.2372 48.1355 50.2963 49.2191 49.227C50.3035 48.1907 50.238 46.3308 49.1503 45.3059V45.3059ZM9.17586 1.46487H35.9238V27.0753C32.8105 27.1768 29.9814 28.7954 28.2907 31.3231H25.3166C24.912 31.3231 24.5841 31.6509 24.5841 32.0555C24.5841 32.4601 24.912 32.7879 25.3166 32.7879H27.4854C27.3873 33.011 27.297 33.2386 27.2153 33.4712C26.8569 34.4923 26.6752 35.5636 26.6752 36.6551C26.6752 36.9449 26.6889 37.2315 26.7141 37.5149H16.5234C17.5288 36.5518 18.157 35.1958 18.157 33.6945V32.788H22.1417C22.5463 32.788 22.8742 32.4602 22.8742 32.0556C22.8742 31.651 22.5463 31.3232 22.1417 31.3232H17.4245C17.0198 31.3232 16.692 31.651 16.692 32.0556V33.6945C16.692 35.8011 14.9857 37.5149 12.8886 37.5149H9.17586V1.46487ZM5.32048 41.3846V31.3726C5.32048 30.968 4.99261 30.6401 4.58798 30.6401C4.18335 30.6401 3.85548 30.968 3.85548 31.3726V41.6287C3.85548 42.3019 4.4031 42.8494 5.07631 42.8494H24.3007V45.2544H1.465V9.20454H3.85548V28.2767C3.85548 28.6813 4.18335 29.0092 4.58798 29.0092C4.99261 29.0092 5.32048 28.6813 5.32048 28.2767V5.33475H7.71096V38.2473C7.71096 38.6519 8.03883 38.9797 8.44346 38.9797H26.9601C27.1727 39.832 27.499 40.6394 27.9223 41.3847H5.32048V41.3846ZM48.1879 48.1864C47.681 48.6917 46.8212 48.6401 46.2974 48.089L42.0374 44.2739C42.695 43.7701 43.3014 43.1649 43.8057 42.5101L48.1338 46.361C48.6333 46.8419 48.6912 47.7018 48.1879 48.1864V48.1864Z"/>
<path d="M36.2347 30.3949C32.8547 30.3467 29.9395 33.2721 29.9909 36.6551C29.9909 40.107 32.7919 42.9153 36.2347 42.9153C39.6775 42.9153 42.4784 40.107 42.4784 36.6551C42.4784 33.2032 39.6775 30.3949 36.2347 30.3949ZM36.2347 41.4503C33.5998 41.4503 31.4559 39.2992 31.4559 36.655C31.4159 34.064 33.6471 31.823 36.2347 31.8596C38.8697 31.8596 41.0134 34.0108 41.0134 36.655C41.0134 39.2992 38.8698 41.4503 36.2347 41.4503Z"/>
</svg>
