<svg width="20" height="20" viewBox="0 0 20 20" xmlns="http://www.w3.org/2000/svg">
<g clip-path="url(#clip0_690_16)">
<path d="M14.6786 12.93C15.889 11.2784 16.4311 9.23062 16.1965 7.19644C15.9619 5.16226 14.9679 3.29168 13.4133 1.95892C11.8588 0.626155 9.85831 -0.070492 7.81217 0.00834944C5.76603 0.0871909 3.8251 0.935706 2.37771 2.38414C0.930312 3.83257 0.0831854 5.7741 0.00580817 7.8203C-0.0715691 9.86649 0.626509 11.8665 1.96038 13.4201C3.29426 14.9737 5.16555 15.9663 7.1999 16.1995C9.23424 16.4326 11.2816 15.8891 12.9324 14.6775H12.9311C12.9686 14.7275 13.0086 14.775 13.0536 14.8213L17.8661 19.6338C18.1005 19.8683 18.4185 20.0001 18.7501 20.0003C19.0816 20.0004 19.3997 19.8688 19.6342 19.6344C19.8688 19.4 20.0006 19.082 20.0008 18.7504C20.0009 18.4189 19.8693 18.1008 19.6349 17.8663L14.8224 13.0538C14.7777 13.0085 14.7296 12.9667 14.6786 12.9288V12.93ZM15.0011 8.125C15.0011 9.02784 14.8233 9.92184 14.4778 10.756C14.1323 11.5901 13.6259 12.348 12.9875 12.9864C12.3491 13.6248 11.5912 14.1312 10.7571 14.4767C9.92296 14.8222 9.02896 15 8.12612 15C7.22328 15 6.32929 14.8222 5.49517 14.4767C4.66106 14.1312 3.90317 13.6248 3.26476 12.9864C2.62636 12.348 2.11995 11.5901 1.77445 10.756C1.42895 9.92184 1.25112 9.02784 1.25112 8.125C1.25112 6.30164 1.97545 4.55296 3.26476 3.26364C4.55408 1.97433 6.30276 1.25 8.12612 1.25C9.94949 1.25 11.6982 1.97433 12.9875 3.26364C14.2768 4.55296 15.0011 6.30164 15.0011 8.125Z"/>
</g>
<defs>
<clipPath id="clip0_690_16">
<rect width="20" height="20"/>
</clipPath>
</defs>
</svg>
